<mxfile host="app.diagrams.net" modified="2020-10-18T08:55:36.851Z" agent="5.0 (Macintosh; Intel Mac OS X 10_15_5) AppleWebKit/537.36 (KHTML, like Gecko) Chrome/85.0.4183.102 Safari/537.36" etag="UV57M-qSOO57a56eoW6M" version="13.8.0" type="github" pages="2">
  <diagram id="DD1ftXpr6JDCIWjiO1Tb" name="第 1 页">
    <mxGraphModel dx="1773" dy="606" grid="1" gridSize="10" guides="1" tooltips="1" connect="1" arrows="1" fold="1" page="1" pageScale="1" pageWidth="827" pageHeight="1169" math="0" shadow="0">
      <root>
        <mxCell id="0" />
        <mxCell id="1" parent="0" />
        <mxCell id="lJt3ZLxrcyOkywHUj_6z-105" value="" style="rounded=0;whiteSpace=wrap;html=1;strokeColor=#000000;strokeWidth=1;" parent="1" vertex="1">
          <mxGeometry x="720" y="937.5" width="480" height="280" as="geometry" />
        </mxCell>
        <mxCell id="lJt3ZLxrcyOkywHUj_6z-60" value="" style="rounded=0;whiteSpace=wrap;html=1;strokeColor=#000000;strokeWidth=1;" parent="1" vertex="1">
          <mxGeometry x="720" y="550" width="480" height="280" as="geometry" />
        </mxCell>
        <mxCell id="lJt3ZLxrcyOkywHUj_6z-120" style="edgeStyle=orthogonalEdgeStyle;rounded=0;orthogonalLoop=1;jettySize=auto;html=1;exitX=1;exitY=0.5;exitDx=0;exitDy=0;entryX=1;entryY=0.5;entryDx=0;entryDy=0;startArrow=block;startFill=1;endArrow=block;endFill=1;curved=1;strokeWidth=2;fillColor=#f8cecc;strokeColor=#b85450;dashed=1;" parent="1" source="lJt3ZLxrcyOkywHUj_6z-104" target="lJt3ZLxrcyOkywHUj_6z-106" edge="1">
          <mxGeometry relative="1" as="geometry">
            <Array as="points">
              <mxPoint x="1310" y="693" />
              <mxPoint x="1310" y="1080" />
            </Array>
          </mxGeometry>
        </mxCell>
        <mxCell id="lJt3ZLxrcyOkywHUj_6z-104" value="" style="rounded=0;whiteSpace=wrap;html=1;shadow=0;dashed=1;sketch=0;strokeColor=#000000;strokeWidth=2;" parent="1" vertex="1">
          <mxGeometry x="950" y="585" width="220" height="215" as="geometry" />
        </mxCell>
        <mxCell id="lJt3ZLxrcyOkywHUj_6z-86" value="" style="rounded=0;whiteSpace=wrap;html=1;shadow=0;sketch=0;strokeColor=#000000;strokeWidth=2;dashed=1;" parent="1" vertex="1">
          <mxGeometry x="250" y="435" width="380" height="90" as="geometry" />
        </mxCell>
        <mxCell id="lJt3ZLxrcyOkywHUj_6z-98" style="edgeStyle=orthogonalEdgeStyle;curved=1;rounded=0;orthogonalLoop=1;jettySize=auto;html=1;exitX=0.25;exitY=0;exitDx=0;exitDy=0;entryX=0.052;entryY=1.014;entryDx=0;entryDy=0;entryPerimeter=0;startArrow=oval;startFill=1;endArrow=oval;endFill=1;" parent="1" source="lJt3ZLxrcyOkywHUj_6z-60" target="lJt3ZLxrcyOkywHUj_6z-51" edge="1">
          <mxGeometry relative="1" as="geometry" />
        </mxCell>
        <mxCell id="lJt3ZLxrcyOkywHUj_6z-5" value="&lt;b style=&quot;font-family: &amp;#34;comic sans ms&amp;#34;&quot;&gt;Master 192.168.2.131/24&lt;/b&gt;&lt;br style=&quot;font-family: &amp;#34;comic sans ms&amp;#34;&quot;&gt;&lt;b style=&quot;font-family: &amp;#34;comic sans ms&amp;#34;&quot;&gt;PodCidr&amp;nbsp;&lt;/b&gt;&lt;b style=&quot;font-family: &amp;#34;comic sans ms&amp;#34;&quot;&gt;10.244.0.0/24&lt;/b&gt;&lt;font face=&quot;Comic Sans MS&quot;&gt;&lt;br&gt;&lt;/font&gt;" style="text;html=1;resizable=0;autosize=1;align=center;verticalAlign=middle;points=[];fillColor=none;strokeColor=none;rounded=0;" parent="1" vertex="1">
          <mxGeometry x="250" y="1040" width="170" height="40" as="geometry" />
        </mxCell>
        <mxCell id="lJt3ZLxrcyOkywHUj_6z-7" value="&lt;font face=&quot;Comic Sans MS&quot;&gt;&lt;b&gt;Work1 192.168.2.132/24&lt;/b&gt;&lt;br&gt;&lt;b&gt;PodCirdr 10.244.1.0/24&lt;/b&gt;&lt;br&gt;&lt;/font&gt;" style="text;html=1;resizable=0;autosize=1;align=center;verticalAlign=middle;points=[];fillColor=none;strokeColor=none;rounded=0;" parent="1" vertex="1">
          <mxGeometry x="1030" y="847.5" width="170" height="40" as="geometry" />
        </mxCell>
        <mxCell id="lJt3ZLxrcyOkywHUj_6z-8" value="&lt;font face=&quot;Comic Sans MS&quot;&gt;&lt;b&gt;Work2 192.168.2.133/24&lt;/b&gt;&lt;br&gt;&lt;b&gt;PodCidr 10.244.2.0/24&lt;/b&gt;&lt;br&gt;&lt;/font&gt;" style="text;html=1;resizable=0;autosize=1;align=center;verticalAlign=middle;points=[];fillColor=none;strokeColor=none;rounded=0;" parent="1" vertex="1">
          <mxGeometry x="1030" y="1250" width="170" height="40" as="geometry" />
        </mxCell>
        <mxCell id="lJt3ZLxrcyOkywHUj_6z-93" style="edgeStyle=orthogonalEdgeStyle;curved=1;rounded=0;orthogonalLoop=1;jettySize=auto;html=1;exitX=0.5;exitY=0;exitDx=0;exitDy=0;startArrow=oval;startFill=1;endArrow=oval;endFill=1;" parent="1" source="lJt3ZLxrcyOkywHUj_6z-10" target="lJt3ZLxrcyOkywHUj_6z-15" edge="1">
          <mxGeometry relative="1" as="geometry" />
        </mxCell>
        <mxCell id="lJt3ZLxrcyOkywHUj_6z-10" value="&lt;b style=&quot;font-family: &amp;#34;comic sans ms&amp;#34;&quot;&gt;10.244.1.3&lt;/b&gt;" style="rounded=0;whiteSpace=wrap;html=1;fillColor=#d5e8d4;strokeColor=#82b366;" parent="1" vertex="1">
          <mxGeometry x="965" y="640" width="180" height="100" as="geometry" />
        </mxCell>
        <mxCell id="lJt3ZLxrcyOkywHUj_6z-103" value="" style="edgeStyle=orthogonalEdgeStyle;curved=1;rounded=0;orthogonalLoop=1;jettySize=auto;html=1;startArrow=oval;startFill=1;endArrow=oval;endFill=1;" parent="1" source="lJt3ZLxrcyOkywHUj_6z-11" target="lJt3ZLxrcyOkywHUj_6z-100" edge="1">
          <mxGeometry relative="1" as="geometry" />
        </mxCell>
        <mxCell id="lJt3ZLxrcyOkywHUj_6z-11" value="&lt;b&gt;&lt;font face=&quot;Comic Sans MS&quot;&gt;etho&lt;/font&gt;&lt;/b&gt;" style="rounded=0;whiteSpace=wrap;html=1;fillColor=#dae8fc;strokeColor=#6c8ebf;" parent="1" vertex="1">
          <mxGeometry x="965" y="660" width="30" height="60" as="geometry" />
        </mxCell>
        <mxCell id="lJt3ZLxrcyOkywHUj_6z-15" value="" style="shape=image;verticalLabelPosition=bottom;labelBackgroundColor=#ffffff;verticalAlign=top;aspect=fixed;imageAspect=0;image=data:image/png,iVBORw0KGgoAAAANSUhEUgAAAskAAABJCAYAAADPGrscAAAgAElEQVR4Ae19+V9Tx/7+9w9g0d6+Wm+99bYvbz+1gNQNSSKoiCzixiKyqsjWooKCYr0qWJfqpVasuGARrbiBoGgsbiyyb2HJck7sn/N8X9lPQpIzgSEkYX7IK5BM5rzfz/uZ9zwzZ87M/5P4BYG9GAaMA4wDjAOMA4wDjAOMA4wDjAMWDvw/BoYFDIYFw4JxgHGAGgf8w1F4/BFenMxABJuMYJMxjAOMA4wDXseBuRPJn25AVlw20r8Mdgjaxo3/w/vREbw6uA3rZptcnmbPbPvryfUTxIKakPFkHJhtDnODV8Q/YD0qnnDQ3CjAehbLOY2ldEkJWtR/4++/Da95GRNKedWt/TK1drMc8ZvOoOFZDxSTaqgVA+hq/AMnVoTMKS+9Io+5FAPfw1kvkqX/3Ifrz7swOKoGp57A8NtWNPz0I1I/dyxgZxpcWfgldKu7UB3uiKTBiEt/BOVHLRSX92CDS4FyfTbM0+yZKb5z8fuIb/fgYvUL9A6rwHNKjLxpQV3ODmz0dy0e4rFwrb65wIJd0/UY0eKPx2DPRLKbBEgIEva3gDMKYJMQ/vvvj1Bd22+YxQ8Mw9bl8UhZkYaqZ7yXDFzWoKxODV7+M1IDDe1JtrwCbzkNnu2RQepin0gnr7qpX/58H2rfjUCl4fFRy0M90od3dy6jPGyNy37r8oF0cSEejGoxWF+JkqgkZK/PwIHdBchyMkk3V3lEtuocOjQDuLkxVNB+QpF7YQic/Ax2GbngPvtCsOPHl1PbFyfH2WXLBTZ6F86k+BlEsn6UzUF+JBWZsnQc2n8Zz7s1UL24iL2LZkcoEzVY/zXYEZaAhE9d73BJATCV8zR7THZ5y7tsWQkaB7SYlNfibOJuZK3LwKGcX/B79hbI5iSZzz5nvCU23mAnTf54jL9MJFt1oLMXF6NIVjfizJp4pHxvesUheamNqAqIxMkHXjK7HxiPiy/V4JSvcTFUJ0aWI/HAK6jUKnT9tH3u8qob+mXpFwfxVM2h7Wgadq/egb1xxah+OALt6COU/8fRxJrjnC9b+wu61D34XWYt6maPk45tEbum54nkIKxbHKVvV9nFz8BpnuOXdfFICY3C5oXWfnoTzmJxMH0vEMlqPE5dbU5qsmVH8XxMg3eHBSInQILs3Bo8k/djUqnCeOcL3C1IRoxgplD6WQLKzzeja2ASHM9BpRhCb0sVCj43grkgFde7efNtL8uoXwvF/zL1o36iW2P+4cg/9ghtb/qhGFeD10xiSN6AX7dssFqaIV2Sh9vyAYwreWg5FUbfNuNmRgI2mGymZY9OCAZGIr/4Dl5/GIdGNYH+ljpciI60JDNCm03B8Zp3fykO31RA23UdhV84HlTRiIUeE6c8DEVh1Sg090oQa4qxSaR/WoCHyhHc3mwYoYvZI/3iRzyZ4NF1XNghrcQPl0fAvzmPNLeP6K0Tktfww4S/o3dC/kicxj0IEoL2JVtzHE1tg5hUKjH65glun/sT7wcmMPnhGarjZOa2KsYNHfaiuW6KSA5G1LpzaBubQFtZEjbZ8tMRPuxzc79kn/NGkay6i+JPRNqIiEgmibsuz+cdqkNb1zg0HG+4dd/8EFWbw82znKLcIInpwgzc7n2Fx3d68PpQLGSBm3C2qRuNt//CWHWOZZ27WLsg6OP0fP5nIk5U1OH5iw8YHNb13zzUYwNoyY/RtwuiflnvVygSoo7j9r13GBzT9c1qTPS8R2NBgrl92Y+jJXYGkaxBc6bUjKls6VG80GjQkm35TDQnOPSdQ9uPm4jtEbOX5vekIpmIY2LcIOGhuUwwNqU/Aqd+jGO2/TwhzkTty4+AP1T9svDOXhwdimSJ32oU14yDe1GJZL0YWIHMY6+hGn6JG3uzkR2egqKie+hVjeFp5noj2ZYj+3Q3+IEmVCXtRmbYdmRF7UNZVhZ2mAXFSsQui0FK0nX0a3rxR1I8kkJi9K8d/15paBCBYUgIikHS8l2oanEw6jd2QPyzyyiJS8P+uCJcqh+AVvkclcJbAAs2ITcxG/sk25EuzcTxC21Qcl2olppuZVCyx28Ncio6oJl8h/qC/ciLzsOZK++hUnegZsMaQ5IntdlMSufBsxfQufhMurgIT5Q83ugSuTPbacTCT4yHIUg99g7qViNv/yHF9mVS/ZpQ2TfHIVe+xcUVxtkEMXv8pSivV4N7dhKJJv4G7kT1ex5DF9IsnZQzn9l3IgJHd4uOhD9icQ+ChKB9RcTXYkL9AlUbdqLo5/fglS9RFZOC0qoucB1VyFpgbHNi3PAjyHVWIjkEsZsuom10FPLSFEQzgSzKC/JcRk8kS0Tjvhp7T7VDo+zA/aIC5G9IRX7SZbzmOMgLNrrQDxLk9kVFeDLegsqky+huPonk745D/vYySgqaobxXYpycImgXfgR9nF8QZCGn8EajwuvzR1Acl4a9EbuwPy4fucHfG2JF0i/7hSA+8Q8McCr01l/C6V37kBeVjh9SSnEk3GZW30lutCeSpf88gCYVhxe5pomnmfme8E/PnFUmE8kE+Ue0ryTgoFWMnIhkJxyzwlm0fZHwhyTurvrmuLwTkRyC3cfegx+6gYKFQZAuOYSmiTE8ShWM4vzCUHJ9HNyjo0gI0F1kJQ5UT4B/cwW5XzonINHyBmejfqsOyOCgbGkZWtUatOwR2mjj/Kc5uDfG4a8frEeRM7VH+nUJWpQcXh8UCMXAWJx/xkF1twTxuk5xujZbEdXGHw/4TrbqPDo5BeriTAMPQhunEQtxHgZjc/pjqPt+x/6Fwdi8uwEq1TOc+k8I1kmr0DvZgLJFDuybYk8I4rMboVK3ouL/DLf4ZMv+izbNGO5vt9x1Ie/MHVzXA2I4lz6Q8Ec87mTtSy+Slfdx+NMgRMTdxJiyAaWfBSEi5jpGlY9c4AZBrjO195sHkJb+B7rHevBg75ZZf75iLmM5N9c2iuSPH6HlectL+QyV39jcmnfWp9hrhzY5QfrvYjyd5PD+yBbLHctP8vBAJRTJBNywdy2bz2TLTqBtsgknliah+vVL3Dj7HF2nkrEl8wlUz04hKZC0XzbkHbE+ziCSR1EXK5LHnWG4MAU1nVpM3juCbaaJBRu/SDhiLZKDEfGveBSfewvVWDNOGSfBiHKC8dpivpPY5K4yZCJZnGOu4EPmmzORTMaxKdexaV8SAv7Q98t5vywiktvNIjkiugYjWi20Gg04teDFf4S2/RIyjQ0iIvgA7r5RQjvRg5dXfsF/Y2MQpRfQ1oYQkdZZYzR1QMInxxdmoW6Ys5rRlC1JQeWlJrzvGsHE2AgG3/dAoeHxrkQgZnWjaNEHCXWdsOP1bBGbr2OU60a1RDg4WI6skx/A919Drm7tDqHNU4g0jSTjzjpkq86iXTNqI5JDkFbaBoX8AjKNs3M0YkHCw3Xrr2BQ+Rjl/1qLkutj4DglmrPWISrpTyg7/meeLSSxR/rlATwZV0NeEAWZXzBiMx9DPX4fR2xvN3l4jNzJB1evRcIfkriTtC8rkRx7AwrlA70w1tevtNxGJOGGaK4ztnft2Bgm+Qk8z4t2fqeFcWias8sO1iTr1kya7gyYsHWSw3W8FYu7nieczdrWKSI5CKLcMNnj5F0WfhEf9JwMRcZPHeA0naiWhGLT7odQvTP0uUTtwngNsT6OhkjWC3uNBk8zJeZlEq7mA115g0j+CC2nAafRQvvxI7juJ7i4UWpuQzR9n46Ns/UbMpEszjFX8CHzZeYiWax9kfCHvl/W2tQWCyci2bDcgn9xBimBQTCJwNqdceblEaZlEonfGm5nmytfIMXuhDJcufoCg0oeo4/PYt9i67WqYg1WX5d/hOOHLOwKzgzcHuQsAjggCicfTIDrasCFxFSkrdiCjI3/xdNRQRnCBCJmjwkf+yL5dyci2cZmJ0nTjK+HlZEuPoBG3Sx60WZzApP4hSDjRCe4rsvYo+uoKMXChLMzHkq/LkWr8j1+jSrCg74mVB1rhqK+BLmHX0NVfwib9bP6hNzwX4ODV0fA6WdudHdOJqC8c3DqemcPi4mncsWeXST8IYm7fZFs3b6sRLJu9niyAaWfB0GfeE0i2QWuSpzlOmOO4ppqUP1wGPyobpmHZd2qPSzYZ847LPv4UFpuQRD3CN3AiuvEFeGuTHZEst5OZ9wgyBcRUb9jWNmAI58FQbooCrtXR+nXsa9P+hPqvqv6PoWoXRivJdbnEotkJ/2y7NvjeKXRoCl9LQWRzEFekoTkkC04+PN7qHtu48ASi46g6bt9Xk2HizP/jWzFGbRrhlEbLZzRD0VB1Yhg+avxOk445go+ZP7PUCQTtC8S/tD3y3nMHIpk2f+VomVMg/Yjhgf3pF+VoFnJob18u0t7fkYGH8fzSQ5tRTbLG1b+jPeaIRsi2BjrH4aj9RpwDUcMyxWEiYVEJH+yD3fHeLw7HGcRbwvTcLNPYxHSpgQyQ3umu9xCons4QyjshT56y98BkTh+dxL8+9+QY9420EYkU4oFEQ8X7ELNh3G03mnG8O0ixH5djKdDrWh+PIHu/+40cMEFeyIjLqNX3Ynq6ALcHRrH491OlvN4S8w8yU4C/hDFnSAnCEWysGOwEskucENYx5RcJ7Tnk004/GsHVOOvcTWa8UeI28z/dkEk654zuKsBd7fY6oFzvQ0EcdfNdP2lUeNlnmn9cRAkjkSyoI1N4YbgO0f+R26/A5XyLor/Yd0vRmyvh2r8Dxz4JAhE7cJ4LZlIH0cukp30ywt1uVeL8TvFSKC23CIIkk93oEquxkDVHvN6fpd8J7lTTBATR7Gi+bn+AUnd8p38DRbdEhCFyiYOmno7vDXabcsxV/Ahs3+GIpmgfUkI+EPfL+v2ZYuFQCQbtoDLCE9BYcY5POlQQSW/hH3mLeBWYc+Jt1BzQ5CfO47DcenYv3kfSnPLUGhe97US+4qu4XJOHnJl25G2NgU/5tWhWzOBpnSbjuGzHNwb5qF4cAFHYtOQG1+E0zsFO2noAx+CtPJ28Mo3qM3ai8KtRTi1Pd5AHGEHZCK3reAMjEZloxqaN7dRsSUF6au3ImPDCTSNTJ1JlszUHr/V5gf37hbmoSC2AGer2+0+uGe1kb2tzSZfvOw9cvVp/DXGQ/GsBhWJ6dgbkYGK2iHwpplkarEg4KF/OI7eUeGjdgT3toXpdz04fHMcHz9O4kGS8SFKV+wJjMaZJjUmuvsxOXIXJWypxTRviztORqL88SOIO0FOIBLJRNwgyHW29gRG4kBVJ9SKVpxfu5I6hrbJff7874JI1j9w2QPtxCtcS8tGwdYinNxqXHpHEveACJTeGoFW8Rdu5eQgPy4PJ44/wSBvvSaZuB90mOcNgkQzfhtFNjt2RCTcxqSqAWX6HaMI2oXpGiJ9HLFI9nPSL/uFYGvafQzzugf3qnA6eQ9yo9KtcTbZ4+Tdek2yIW9EbbqKPnUHqqWmtkPuu9gsuke1lYBIlNeNQTvwFFVJqcgIT8Xh8maM8mNoTDc9tEiQf0hyppMYCDEh3gLO2WCEpH0R8Yc87kIfpvu3QST/cx9utH7AkEIFXj2JkXcv0HCiCKlmgWzs3AIkyMq5iuZXA5hQa6FVjmHg5X2cXmV8OMJfgv0ld9HWMQIVp9tyTQlFx0s0lGYjwXZtmF8Itm37Fc/ejUDNaaEZ7Yb8RAaidLfCBYGTLk7FxTsdUCh5cIoe/HUy01DGtgPS/caO4Iz4Zi+qbrxC7+AkOI6DSrcu+c1L1CabyGa63gzt0V1ftwXc4bt42zOpP5Rl8Hk9LsYIrkNos9B/7/k7GFGrD+LanbcYHNNAy6sw/uEtnp8rNO9sQi0WYjz0W45dR96C6/wNe42zMBtirmNQ9RJnl1ke5CG3Jxib4m9iSKvF0KVM9uCVoH3S46c4f3TbPTnNPwTti0gk+wVBlBskuc6uPbGofDQOvrPG6XaJ9HA15TdffndFJAdB9lU2frv/AeMqHhpFD16Z+hSSuOvWyy7ajv9WtaJXoQGvHEV3Y5teJL/MM+Z6Em6ItqEQJOQ+Azd8A4U2e9FGxN3CuKoZJ782Lj0Qaxfmaznv48hFsm5HGgf9sv5a32Nb7EnUPWjH8LiuL+Cg7O9A63+zzLPAYvy2J5IlARtwsmESygdl2G56zonQd68Sybq18V+moPJyq/FgLjUUHa2oL0xBjMlvUo4R4uM8HuSHiYjhLJpXSflDxS+ynKgXyc4BIquI1cFw8mUOyIJOom3yHarWCB/MZDH35Zgz3xi/STgg+6YccvUkHiSyHW9I8GJlWLvyJg4wkWweZTPiehNx3WGr9PNNSA9PQMamEtS+nEB/1d6p6xgZf6zu/LgjLuwaLFfNHQdWIH3XTyjfnoG9siTkxBfjSsMg+IE6HPqX5aGyubOPcYNhzzhAkwNMJDORw0SOAw5ErK/ChwkO3FgP5BcPIsUNx6PTbNysLtZZMA5Q5kBAJEouvjLcBue10CgG0F7/G8pXh81oNwcWJ8pxcpDTGc4MZ1c5wEQya0xMJDMOMA4wDjAOMA4wDjAOMA7YcICJZBtAXB1lsPJsZMo4wDjAOMA4wDjAOMA44HscYCKZiWQ2cmQcYBxgHGAcYBxgHGAcYByw4QATyTaAsJGg740EWUxZTBkHGAcYBxgHGAfmkAP+a5CZdQk39idinRfpLiaSvShYrIHPYQNnPGEzDIwDjAOMA4wDjAOOOfDpBmTFZSP9Szs7vdjbN94LsLSIZP8wZObdQtuHCWhU4+hvqUVF+DTOX/fVerwgmJ4gotd/9wPq3qrQV5kydbRIhRvB2BRWjGt1rzGgUIFTKtDbcgfno2SWIzxtYrX++zI09fHgWyuQ7OCoVJIyYvg69d3GJmd10arH2TU87jsq3AiCxFfrcYE/HhfbWbZdtuocOjQDuLkxVNB5hyL3whA4+RnsErT5iG/34GL1C+MhDUqMvGlBXc4ObLQ5xMpjMKTF51mOwazgNZ99pxUvN2Po9DARUpHsZpvFuGsUySFIyHgIBTeIlmM/oiDuR1TdGwQ//BDHllpOKBOrTOLnq/WwGUyx2Mv+tRWHj95D5xgPLc+jf4pIpsSNwGicftCHd1fOoDwhA/nbylD7fBxaxX2ULZk6el33XTEe94xgsEcFzoFIJinjzH9x38n4Q6seZ7Z65neUuMHyj0AkknHOM/ngmu2kIlm2rASNA1pMymtxNnE3stZl4FDOL/g9e4vDAfbc4kOrXbiG59z6bLJ1PvtuwmCm7+7HcOYi2f02i/HdIJIDE1DVxkFRk4/NxhG1dHEBGkY4tJclkCcQX62H1qjOZ+sJwe4jcvQ13cLZ+Hxce8tNFcm0uKE7FnbBcitORkRcRj83iJtRwpkk3fGxu1AtH4L8UBJ+ODdgVySTlHHeiAh8J4o7rXpmmljn4Pe0uOGr9RDxZw7i5iF2EYlkfykO31RA23Xde44Dp8VnD4mT8zxqw9/57DuteNHEMECC7NwaPJP3Y1KpwnjnC9wtSLYcrrUgFde7efz99982Ly0U/8tEhM4n40yydrgHPYNKcOpJDL9qQFWc8Th3XRmaNlPCUS+SpV+XoVWtRmOaBDv2PMLQQDMqQ6Uor1eDu38YcYS3ony1HpcaN6XAeN01/YMNm+kHbsdvb6aKZFrcmIpLMDYn38O4shUV3wruegSsQ/HVPvRV5yE+YDlyztoRySRlSOIp4vtUm206BNM1aNVjqs9L3mlxw1frIeaPl8Sbtj8kIlm6uAhPlDzeHIq1GmDTtoVmfbT4TNMmd9U1n32nhTE9DFcg89hrqIZf4sbebGSHp6Co6B56VWN4mrne2J5WInZZDFKSrqNf04s/kuKRFBKjf+3490qDNjCKZF5eg/KtGciNKcTFun7wE804+Y2h76Zns4M+dho5Ui+SZavPo1MzgtrolUgvbwfP9+DaulUoqBoFJ/8ZqYI1Xc4C6Kv1OPOZfWdDRgcimRY3bPGOWHYQD3tUaD+Zgo3mBhCCLan3MdxRg4IvdEsw7IlkkjI2vpnrd/C5A99tbRb9n1Y9YvZ6yPe0uOGr9YjyxUPiOFd2kohk2arz6OQUqIuzvts0VzaTXJcWn0mu5Wll5rPvtGJBC0PpkkNomhjDo1Sp4FTJMJRcHwf36CgSAiz9oavLLWRLj+KFRo2nmYa6adlMC0NdPTYiORSSwDAkLF2LdX6hMxDJvlUPTcB9vi4HAs9C/plxQ4jfhpVleNytRM+VQmxfYGmo0sU5uNszgD93mhr1VJFMUkZ4LaK/HfhO9Fuh0KFVj7BOD/6bFjd8tR6X+ePBsZ4NX8hE8lm0a0ZtRHII0krboJBfQKYgf8yGjdOpkxafp3Ptuf7NfPadFva0MIyIrsGIVgutRgNOLXjxH6Ftv4RMwSSqqyJZsjAbdSMc3hyK0c9I07KZFoa6emyWWwjOn/cPNy63ODKN5Ra+VQ9NwH2+LgcCz3IbZWbcMOAXjKjwU2gdmkTH+RwkCBqp7vtNqQ1Qf+TB2zToj1otuIkn+OmrYKIyLsfKge9zVo+XiCVa3PDVelzmj5fEnZZfshVn0K4ZRm20cJZYN8kzAu5FpX5HG+niA2hUcnhdtFmw3CIEGSc6wXVdxh4PFMm0+EwLZ3fWM599p4UzLQwjNl/HKNeN2p1x5iUUpqUUid9KsV6Qb1wXyRm4PcjhXYlhGRQtm2lhqKtHL5IlgVsND+79nodo04N7X+SjYdjeg3shiI0oRdWxMuxdIlgDqgPKq+uxzETSBHje1eVIKNLihl8QZF8V4H6PCl0X9iBecKvHhLXs80gkGtdDGRpzPMqqh8G1XUbh8khEBQaBpIypPt2uLQ45L0gQEke+m8vQqsfHuEqLG15dj4/F1Mz52fdLuqQELSoO8vwNFgEcEIXKJg6a+mLDw0UBkTh+dxL8+9+Q87lpFxzPFsmu9aezj7MlH7rhWi61ZTfY40Y+U8OZEobSr0rQrOTQXr7dShDbs1O28me81wzZDFiN8bG3BdxCa5HsiZw3iGTd1kmZj6DgBvC0tBD5MYW4VD+g3wKu/D82QnhBEq526J5i5NFbkWyzF64X1+ONjcCTbP6HFDtC45GyqgB/dPIYunIAqd/HIfFr46J9ahwLRfapbnC9dShfG4+U7y2v5G/WWDpJK2ymLreY2sCdlHHK+SBIRH03Jgla9Vj55gsdhBfnDacxdcEvn4upG3kZEInyujFoB56iKikVGeGpOFzejFF+DI3plifnI1efxl9jPBTPalCRmI69ERmoqB0C76EzyfotVUn7ZZ/jD2s7U/soV9sULQxXYc+Jt1BzQ5CfO47DcenYv3kfSnPLUGh84M5s62c5uDfMQ/HgAo7EpiE3vgindxq3WCQRya7oBDdx3iiSdZvwr0VmXi3auifAqScw2FKLSomdw0T8pfjh/HtMKNpxK8G05lMQPG+tx02Am8nkY9eThV1AFz91+5fhC+mG7V90/tLgRsBGVDRyNtvMGK7LmWaNpmDrRACbyzopI8J5It/1/jtvO8T1mG0WtDtv/4wGN/QYe2ke8/b4zbH9si9TUHm51XhIiBqKjlbUF6YgxupOUzCiVh/EtTtvMTimgZZXYfzDWzw/V4gdNku2PCZPk7aLOcZ/VvCaz77TiictDAMkyMq5iuZXA5hQa6FVjmHg5X2cXmUzieoXgm3bfsWzdyNQc1poRrshP5GBKN0KBSKR7IJOoIWRSD0WkSxScFYaAbvmvNz8n3HJh8Qta8OsDTMOMA4wDjAO+CgHmEj20cAyIcqEKOMA4wDjAOMA4wDjAOPA9DnARDITyWwEzDjAOMA4wDjAOMA4wDjAOGDDASaSbQBhI67pj7gYdgw7xgHGAcYBxgHGAcYBX+EAE8lMJLORI+MA4wDjAOMA4wDjAOMA44ANB5hItgHEV0Y/zA82kmccYBxgHGAcYBxgHGAcmD4HmEhmIpmNHBkHGAcYBxgHGAcYBxgHZo8D/muQmXUJN/Yn2pyvMX0B6w7xz0QyaxSz1ygYtgxbxgHGAcYBxgHGgfnBgU83ICsuG+lfmk61FAhge/skewEvpojk9d/9gLq3KvRVpkxV+/5hyMy7hbYPE9CoxtHfUouKcDsHjjh1PBibwopxre41BhQqcEoFelvu4HyUzMFpaUFY/30Zmvp48K0VSHaw6TtJGYejDip+6TbBpoGPgFROcfTMcvOSP8Y4OfXdhVjSqsch312wxT11EOaEwHhcfKk77VN4aI0aj1NXWzogkjKi/nuaPRRziw/mKNmqc+jQDODmxlALD/xCkXthCJz8DHYJ+oyIb/fgYvUL46EjSoy8aUFdzg5s1B12IMqLOSjjg/Eixnk++06Li27GUBZ+Cd3qLlSH2x4y4uAwEXt+utlmMT6aRbLsX1tx+Og9dI7x0PI8+qeI5BAkZDyEghtEy7EfURD3I6ruDeqPrj621A4g9pzXfRYYjdMP+vDuyhmUJ2Qgf1sZap+PQ6u4j7IlU0cf674rxuOeEQz2qMA5EMkkZRwDQckv3XGKNPBxhJuHfz5/+RMEcd/JOlda9TjmOpkdbv89aU5YkIjqDjVel6dhl/k48lgkLBLkH5IyYm3J0+yhllt8M0eRimTZshI0DmgxKa/F2cTdyFqXgUM5v+D3bOOxuWK8cPv3vhkvsvwyn32nlafdj+HMRbL7bRbjo1Ekh2D3ETn6mm7hbHw+rr3lporkwARUtXFQ1ORjs3HULV1cgIYRDu1lCQ5nge0ZIF2w3Kp8RMRl9HODuBklnAkIgnTRLlTLhyA/lIQfzg3YFckkZezZYP6Mll+06nF7IqbRIOcxf/wIfCeKKa16aMTT/XUQ5YSFWagbUuFh0krHs34kZQji4VH20MottOohwM+cX91Qlkgk+0tx+KYC2q7rKPxi6mSMO+0lvpaPxovI//nsO602QxPDAAmyc2vwTN6PSaUK450vcLcgGTGmOzALUnG92/Yun+6OnxaK/2UiQueTcZbLMeYAABI/SURBVLmFdrgHPYNKcOpJDL9qQFVcpEUP0rSZEo7mmWSJfzCkukoDt+O3N1NFsvTrMrSq1WhMk2DHnkcYGmhGZagU5fVqcPcPI84ElsuGBWNz8j2MK1tR8a1gRihgHYqv9qGvOg/xAcuRc9aOSCYpI2IPLb9o1UOUQER8mpM65il/9FiL+E4cD1r1eCI/XLLJQU5YVIRG5Qj+TN2EuEWhhnxlWy9JGdvfiP4/t/bQyi206iHmsyiudAZjJCJZurgIT5Q83hyKtXTIbrJvunj5arxI8JjPvpPgQ1KGHoYrkHnsNVTDL3Fjbzayw1NQVHQPvaoxPM1cb2xPKxG7LAYpSdfRr+nFH0nxSAqJ0b92/HulIVcbRTIvr0H51gzkxhTiYl0/+IlmnPzGoP3o2Uwnt+hwtohkU8JwIJJlq8+jUzOC2uiVSC9vB8/34Nq6VSioGgUn/xmpgnVfJAE0lYlYdhAPe1RoP5mCjSYb/EKwJfU+hjtqUKAf9dsTySRlxIGi5Reteky4eO37POOPVZwc+G5VxsxxJ9ykVQ/JtTywjP2cEATZslI8edeHYYUK2o8cxt48RnViNCIFPpCUcTUec20PrdxCqx5X8Zvt8iQiWbbqPDo5BerirO9WzrZtM6nfV+NFgsl89p0EH5IytDCULjmEpokxPEqVCiYmwlByfRzco6NICLD0Za4ut5AtPYoXGjWeZhrqpmUzCT6kZaYhkkMhCQxDwtK1WOcXOiORvGFlGR53K9FzpRDbF1iAli7Owd2eAfy50xSUqSKZpAwJCJagzMwvWvWQ2OzRZRwIvNnAxxP4YxULB75blREIOoef06qH5FoeVsZRTK2xCsGGpTtRdq4NE5pu3IgSPLhn9oekjCXnWNdv+dwT7KHVdmjV4wirufqcTCSfRbtm1EYkhyCttA0K+QVkCvqfufLD9rq+Gi9bP+39P599t4fHdD6jhWFEdA1GtFpoNRpwasGL/wht+yVkCiZIXRXJkoXZqBvh8OZQjH5GmpbN08HL0W+IRbJlGjzMMprwDzcutzji4nKLYESFn0Lr0CQ6zucgQQCyztBNqQ1Qf+TB2wTko1YLbuIJfvoqmKiMI6eFn9Pyi1Y9Qtu88m8HAo8uPp7DH6sYOfDdqoxZxFmE2JTvadVDci2PKeM8plMw0tm9IBm/d/AY+SXdsObNni8kZez9zs9z7KHVdmjVYzcWdjF0wnGK5WUrzqBdM4zaaOEssW4CZwTci0r9jkjSxQfQqOTwumizYLlFCDJOdILruow9HiiSfTVeJPyZz76T4ENShhaGEZuvY5TrRu3OOPMSCtNSisRvpVgvaMuui+QM3B7k8K7EsAyKls0k+JCWIRbJksCthgf3fs9DtOnBvS/y0TBs78G9EMRGlKLqWBn2LhGsMzaCKfuqAPd7VOi6sAfxgql6k9GyzyORaFzPYghGPMqqh8G1XUbh8khEBQaBpIypPomfE3to+eVSPe7pPCz+u/F6jgSeS/g4iZdfEDyKP4IE4Wg9vyUOzv0yl3OEofBaPva3WEzN2Aj9/iQF1zpFRLLDMs5j4VH20Go7LtXjxpwhjOk0/pYuKUGLioM8f4NFAAdEobKJg6a+2PBwUUAkjt+dBP/+N+R8bnpwz7NFsmt9rvfEy25bto27j3KVyHdbLKb7PyUMpV+VoFnJob18u5UgtueLbOXPeK8ZshmwGrlpb5/khdYi2RM5bxHJ/5BiR2g8UlYV4I9OHkNXDiD1+zgkfm1cdK3bhijzERTcAJ6WFiI/phCX6gf0W8CV/8dGCC9IwtUO3ZOOPHorkm32Ww5F9qlucL11KF8bjxTzVk7xSP5mjSXJWRFj6nKLqQFyUsapPbT8cqEeK998JLnNW/4EQSLquzHGTnnoQj0+xx+SnPA9MrPP4ee0fcjbkIr9Ww7i0q1OqDnhcguSMiSx8DR7XMgtTjnmQj3exLGASJTXjUE78BRVSanICE/F4fJmjPJjaEy3PDkfufo0/hrjoXhWg4rEdOyNyEBF7RB4D51J1k3uEPe53hQvIlvns++0NAEtDFdhz4m3UHNDkJ87jsNx6di/eR9Kc8tQaHzgzqzHPsvBvWEeigcXcCQ2DbnxRTi907jFIolI9kDOm0WyLOwCunjhJv2G7TuGLwhuZfqvRWZeLdq6J8CpJzDYUotKiZ3DRPyl+OH8e0wo2nErwbSu2Bj4gI2oaORsDgQwXJczjfqnNCInAthc1kkZZ/bofk/DL1fqMdtMqzHMfT3zmT9Evuv54aRd6GbISdqgD3JHQpIT/CXIK21A2/sRKDVacJMj6G6sw8UtUZYH90jKmPBzlhM8zR49dyjkXlfqMeHkJe+yL1NQebnVeEiIGoqOVtQXpiDG6k5lMKJWH8S1O28xOKaBlldh/MNbPD9XiB02S/7Mnf5c+0/aN821nbNx/fnsOy08aWEYIEFWzlU0vxrAhFoLrXIMAy/v4/QqmwlSvxBs2/Yrnr0bgZrTQjPaDfmJDETpVh8QiWQX9BgtjETqMYtkj0kKIgYzO+deELMYsBgwDjAOMA4wDjAOMA74OgeYSGai3PHBDAwbhg3jAOMA4wDjAOMA48A85QATyfM08L4++mP+sRkOxgHGAcYBxgHGAcaBmXCAiWQmktkImXGAcYBxgHGAcYBxgHGAccCGA0wk2wAykxEH+y0bsTIOMA4wDjAOMA4wDjAO+AYHmEhmIpmNHBkHGAcYBxgHGAcYBxgHGAdsOMBEsg0gbPTnG6M/FkcWR8YBxgHGAcYBxgEP4YD/GmRmXcKN/Yk2Z2d4iH0OtCATyQ6AYQ3Ls4nL4sPiwzjAOMA4wDjAOOBBHPh0A7LispH+pelUS4Ft9vZJ9gL9NUUkr//uB9S9VaGvMmWq2vcPQ2beLbR9mIBGNY7+llpUhNs5TMSp48HYFFaMa3WvMaBQgVMq0NtyB+ejZA5O2wvC+u/L0NTHg2+tQLKDTd9Jyog1Jqe+O/XJSAQq+AhIRXJNTylDy3dfrcdT4uSRdhDmhMB4XHypO8lTeOiRGo9TV1tuEZKUEcWA2SOWKyW02qloLMTzoWzVOXRoBnBzY6iFB36hyL0wBE5+Brsc9BmiPlKwbcbX8CCcZ+yLq3jOZ99dxcpReTdjKAu/hG51F6rDbQ8ZcXCYiD273WyzGK/NIln2r604fPQeOsd4aHke/VNEcggSMh5CwQ2i5diPKIj7EVX3BvXHUh9bagcQe87rPguMxukHfXh35QzKEzKQv60Mtc/HoVXcR9mSqaOPdd8V43HPCAZ7VOAciGSSMs6AEPddPFHrjxClgY8j3Dz6c0rc0B1JSQVDT6uHhD/zuAxpTliQiOoONV6Xp2GX+Tj7WCQsEuQfkjJibYnZIxCb9nhJq33Zq9v1z3xXJHsWzs76UPrfzWffXW8D9vF3P4YzF8nut9k+dpYYGEVyCHYfkaOv6RbOxufj2ltuqkgOTEBVGwdFTT42644Y9AuCdHEBGkY4tJclOJwFtmeAdMFyq/IREZfRzw3iZpRwJiAI0kW7UC0fgvxQEn44N2BXJJOUsWeD5TMC38U6Vd33FPGx2GYJlEd/Rst3X62HhD/zvAxRTliYhbohFR4mrXQs4kjKEGDN7HGSe2i1U4I4kOQ9nxXJHoYzSSyolZnPvlNqF1Q1SYAE2bk1eCbvx6RShfHOF7hbkIwYoxaULEjF9W7bu3y6O35aKP6XiQidT8blFtrhHvQMKsGpJzH8qgFVcZEWPeiBcTfPJEv8gyHVORK4Hb+9mSqSpV+XoVWtRmOaBDv2PMLQQDMqQ6Uor1eDu38YcSawXA5wMDYn38O4shUV3wpmhALWofhqH/qq8xAfsBw5Z+2IZJIyJPaI+E7S8GcPHyedFYlvbihDy3dfrYeEP6yMkOcOcsKiIjQqR/Bn6ibELQo15CtbfpOUsf2N6P/MHiE/abVTYZ0z+dtXRbKn4TyTGLn62/nsu6tYOSpPD8MVyDz2Gqrhl7ixNxvZ4SkoKrqHXtUYnmauNwrclYhdFoOUpOvo1/Tij6R4JIXE6F87/r3SkKuNIpmX16B8awZyYwpxsa4f/EQzTn5j0H70bBb2JzP72yKSTR2FA5EsW30enZoR1EavRHp5O3i+B9fWrUJB1Sg4+c9Inea6r4hlB/GwR4X2kynYaLLBLwRbUu9juKMGBV/olmDYE8kkZVwEx4Hvjkgo/Hy28BFew1P/puW7r9bjqXHzVLvs54QgyJaV4sm7PgwrVNB+5DD25jGqE6MRac4bZGVc9ZvZY51HabVTV+PgqLyvimRPw9kR/rPx+Xz2nRaetDCULjmEpokxPEqVCiYmwlByfRzco6NICLDkB1eXW8iWHsULjRpPMw1107KZFoa6eqYhkkMhCQxDwtK1WOcXOiORvGFlGR53K9FzpRDbF1iAli7Owd2eAfy50xSUqSKZpIzLQFERyfTwcdl+gVhw528txJ6Z775ajztj4e3XcpQTrP0KwYalO1F2rg0Tmm7ciBI8uGduAyRlLDnHun7L58weCxYmjGi1U1N9M333fZE8s7w6U3zn4veexrG5wGCm16SFYUR0DUa0Wmg1GnBqwYv/CG37JWQKJkhdFcmShdmoG+Hw5lCMfkaals0zxU74e2KRbJkGD7OMJvzDjcstjri43CIYUeGn0Do0iY7zOUgQgKwzblNqA9QfefA2Afmo1YKbeIKfvgomKiN0lOjvGYhkuvhM7ZiI7DcLBPf+npbvvlqPJ8fOc2xznhPs2rkgGb938Bj5Jd2w5s0e/0nK2PudH7PHLua6Z1HMS+9o9AUzz1WyFWfQrhlGbbTwmRbdBM4IuBeVDndEcuSfp3zuaTi7E5f57DstnGlhGLH5Oka5btTujDMvoTAtpUj8Vor1gvzpukjOwO1BDu9KYvUimZbNtDDU1UMskiWBWw0P7v2eh2jTg3tf5KNh2N6DeyGIjShF1bEy7F0iWGdsBFP2VQHu96jQdWEP4gVT9SbHZJ9HItG4nsUQjHiUVQ+Da7uMwuWRiAoMAkkZU326nSec2WMuJyqSndTjEj4z7xjMNgsIOmefueQ7LQw9rR4fi6mbeSWWE+xy+5MUXOsUEckOyzjhj18QmD1O8HGpvc9+u5AuKUGLioM8f4PlAaCAKFQ2cdDUF1seLnIzp+1y1hUbPAznGfvDfHf8wLEr2JCWpcQf6VclaFZyaC/fbiWI7fFBtvJnvNcM2QxYjTnA3j7JC61Fsms6c/Zzi85Hi0j+hxQ7QuORsqoAf3TyGLpyAKnfxyHxa+Oia932XJmPoOAG8LS0EPkxhbhUP6DfAq78PzZCeEESrnbonnTk0VuRbLPfciiyT3WD661D+dp4pJi3copH8jdrLEnOighTl1tMDZCTMk7tCYJE1HdjMJzW4wI+Vr65J9BT8aJ5XRd8p4Whp9XjczGlyQ+xukhywvfIzD6Hn9P2IW9DKvZvOYhLtzqh5oTLLUjKGG1xyh9mj8QpPi60d3e0i4BIlNeNQTvwFFVJqcgIT8Xh8maM8mNoTBc8Oe8OW6hew8NwpuqbWE6Yz76LYUP6PS0MV2HPibdQc0OQnzuOw3Hp2L95H0pzy1BofODOrC8+y8G9YR6KBxdwJDYNufFFOL1zi0HXkYhkV3Smm/hoFsmysAvo4oWb9Bu27xi+ILiV6b8WmXm1aOueAKeewGBLLSoldg4T8Zfih/PvMaFox60E07piY2ADNqKikbM5EMBwXc7hqN+JADYD5aSMM3t0s0YkvuuuI1KPhBQfs82kZPeCcqS+08LQ0+rxxZi6yyeSnOAvQV5pA9rej0Cp0YKbHEF3Yx0ubomyPLhHUsbkkzP+MHu8LtfJvkxB5eVW9A6rwHNqKDpaUV+Yghg7dyrNHbqJC578TppXPdmH6do2n32fLma2v6OFYYAEWTlX0fxqABNqLbTKMQy8vI/Tq2wmSP1CsG3br3j2bgRqTgvNaDfkJzIQpVt9QCSSdTqLUGfa+jpL/5tFslcljlkCg2HgBWKcxd69t+wY3gxvxgHGAcYBxoF5ygEmkudp4NmAgA0IGAcYBxgHGAcYBxgHGAccc4CJZCaS2QiZcYBxgHGAcYBxgHGAcYBxwIYDTCTbAMJGVI5HVAwbhg3jgPdy4O+/bZ85mfo/i6/3xpfFjsWOcYA+B5hIZiKZjRwZBxgH5gEHmEim34EyUcIwZRzwbQ4wkTwPOkfWiH27EbP4sviScICJZMYTEp6wMownjAMWDvx/RRYaETRznu8AAAAASUVORK5CYII=;" parent="1" vertex="1">
          <mxGeometry x="864.08" y="435" width="654.4" height="67" as="geometry" />
        </mxCell>
        <mxCell id="lJt3ZLxrcyOkywHUj_6z-28" value="&lt;font face=&quot;comic sans ms&quot;&gt;&lt;b&gt;10.244.1.1&lt;/b&gt;&lt;/font&gt;" style="text;html=1;resizable=0;autosize=1;align=center;verticalAlign=middle;points=[];fillColor=none;strokeColor=none;rounded=0;" parent="1" vertex="1">
          <mxGeometry x="850" y="797.5" width="80" height="20" as="geometry" />
        </mxCell>
        <mxCell id="lJt3ZLxrcyOkywHUj_6z-51" value="" style="shape=image;verticalLabelPosition=bottom;labelBackgroundColor=#ffffff;verticalAlign=top;aspect=fixed;imageAspect=0;image=data:image/png,iVBORw0KGgoAAAANSUhEUgAAAv8AAACSCAYAAADSDqWPAAAgAElEQVR4Aey9eV9T1xo27Adg0LbPqaee+tTX06eWyRFJIogBGcSJQWQQFGWwOICgWKuCdageimIdsQhWnEBQNBZQGWQKU0LIsHfsx7neXyDDTsiwIhvcIesPfgnJnbXv4brvda1p7wUinwDQP+oDigGKAYoBz8PApq/XIPqbUFrDaT9GMUAxQDFAMUCMgQW0w/e8Dp/GjMaMYoBigGKAYoBigGKAYoBi4FMwQMk/HSkSjxQ/BWD0N7QweR0GfMNQcPIJXp3OQDitL7S+UAxQDFAMUAwIDANzT/6/isSeuCykfxvoEAybNv0P78dG8ebwNmyYbYcJTZ/ZtlfI7RPEwuuIpJDjRXWzX8P8NqL8GQPd7XxspD6y76M58ot4aRFatP/gn3+m/rwyJjzV1Tntl3nDRzDio86h4UUfFBNaaBVy9DT+iVOrgj4rLudfP0b97GkxXXDrZQ+GxrRgtCqMvG1Fw88/IfVrx8R8pgZKwq6gV9uD6jBHyReIuPQnUH/UQ1GVjUjeioD9GVih6TNT/36O34f/kI3L1a/QP6IBy6gx2tGC2pwd2ORr3+eOdHQdC/fac3Qd+rmw/MgXfgQTV0r+54hYBSFhfwsYI7E3Efx//vkIzY39U6su/qHYGhyPlFVpqHzBesiAbB1Ka7VgZb8i1X8qVyXB5XjL6PAiWwKxm30iP3V1jvrlr/eh5t0oNDoWH/UstKMDeHe/CmWh69y221APxEsK8GhMj6G6ChRJk5C1MQOHdudjj5PJx89VRyRrLqBLJ8edTSGc/AnBgUvDYGTnsMuIhbnTLwg7fno9Pb8YGc6vCObo6Fl+njv/CauftbV7QYuWgexYKjIl6Tiyvwove3XQvLqMvYtnZwBAVIh812FHaAISvpp95wlNH9sACf1/yYoiNMr1mJDV4HzibuzZkIEjOb/hj6wtkHyWTmr2MSP0mHiSfnziRzB2U/JvRQxmLy5G8q9txLl18UhZafqLQ/JyG7LoF4HTjzxkNcY/Hpdfa8Go23E5xECygpF46A00Wg16ft7++erqHPTL4m8O47mWQdvxNOxeuwN7446i+vEo9GNPUPZfRxOGjmu+ZP1v6NH24Q+JNVmdPUw61sXVNYVH/gOwYYl0Mq+yjr4Ao3uJ3zbEIyVEis2LrO30JD+7ioO3fL+gRavF09S15mItWXEcL5U6vCvmkDc/EbIO3MQL2SAm1BqMd79CfX4yYjgzu+J/JaDsYjN65BNgWAYaxTD6WyqR/7URJAtTcauXNS+/WmZp9FD8L3NyloZoidY3DHknnqCtYxCKcS1Y3QSGZQ34fUuk1RYh8dJc3JPJMa5moWc0GHvbjDsZCYg06cyXPgaC6x+BvKP30f5hHDqNCoMttbgUHWEp0oQ6exzofMUovqOAvucWCr5xPFjkIxaTvnGKwxAUVI5B96AIsaYYmwYfX+XjsXoU9zZPzai40kf8zU94pmLRc5Lb0a7GwapRsB0XkTbnMzDWhdbjcGKKg+0rIX5ETuMeABFBfknWnURT2xAm1GqMdTzDvQt/4b1chYkPL1AdJzHnqitsGHzvstZNI/+BkG64gDalCm2lSYiyxaetX+j/5v7IOdaN5F9Tj6NfuMgRF+SfJO6GOp97pBZtPePQMezUFpLmx6jcHGaelXaJDZLYLsrAvf43eHq/D+1HYiHxj8L5pl403vsbyuocyzkSV3lB0MdN4vnfiThVXouXrz5gaMTQf7PQKuVoyYuZzAuifnnSrhAkSE/i3oN3GFIa+mYtVH3v0ZifYM4v5/EMwBT516E5U2z2qWT5cbzS6dCSZfnMZU1waDuDtp+iiPVxpS+f35OSfyKMucIGCQ7NMoGISn8CRvsUJ2z7eUI/E+WXDwF+eLXLRc0w2z8/5aaRf5HPWhy9OQ7mVQWSJ0nOKmSeaIdm5DVu781CVlgKCgsfoF+jxPPMjcYkCkbW2V6w8iZUJu1GZuh27JHuQ+mePdhhJkqrEbsiBilJtzCo68efSfFICoqZ/Nvxf1dPJbp/KBICYpAUvAuVLQ5maYwdK/uiCkVxadgfV4grdXLo1S9RwV2KWhiFA4lZ2CfajnRxJk5eaoOa6UG12LSkxpM+PuuQU94F3cQ71OXvR250Ls5dew+Ntgs3I9dNdWKkOnsY2MRLCvFMzaLD0EE5052PWPi4wmEQUk+8g7bViNsvxdi+Qjy551ry/UnI1G9xeZVx9seVPr5ilNVpwbw4jUQTfv13ovo9i+FLaZbO15nN9DuXBI4MP67iHgARQX6Fx9dApX2FysidKPz1PVj1a1TGpKCksgdMVyX2LDQWeFfY8CGodVbkPwixUZfRNjYGWUkKoinxd4kLckLFH/kXuYz7Wuw90wmdugsPC/ORF5mKvKQqtDMMZPmb3OgHCYjE4kI8G29BRVIVeptPI/nHk5C9rUJRfjPUD4qMk24EeeFD0Mf5BEASdAYdOg3aLx7D0bg07A3fhf1xeTgQuHIqViT9sk8Q4hP/hJzRoL/uCs7u2odcaToOppTgWJjNKoyT2miP/Iv/fQhNGgavDpgm1GZme8K/hbkKQEb+CeqPy76SAINWMXJC/p1gzMrPLvOLBD8kcXfXNu+Vt0P+g7D7xHuww7eRvygA4qVH0KRS4kkqZ9TtE4qiW+NgnhxHgp/BeatxqFoFtuMaDnzrPLGIttk4m6Wx6linAidZXopWrQ4t2VwdbYL6VQ4eKBn8fdB61D9TfcTLitCiZtB+mEOA/WNx8QUDTX0R4g2d/afqbJWANvYI4DvJmovoZhSojTMNqAh1/IRYuMZhIDanP4V24A/sXxSIzbsboNG8wJn/BmGDuBL9Ew0oXexAv2n6BCE+qxEabSvK/9/UUrNkxS9o0ynxcLtllYycpDi4rgBi+DltIMGP67iT5dck+Vc/RPFXAQiPuwOlugEl/wpAeMwtjKmfuIENglpnyvc7h5CW/id6lX14tHfLrJ9f+pyx/DzXNpL/jx+hZ1nLn/oFKr632SLirE+xl4c2NUH8f4/i+QSD98e2WFaYv8jFIw2X/BNgw961bD6TrDiFtokmnFqehOr217h9/iV6ziRjS+YzaF6cQZI/ab88VXdc9XFT5H8MtbEu6rgzHy5Kwc1uPSYeHMM204SJjV0kGLEm/4EI/088jl54C42yGWeMk3tENcF4bVe2k+g0VzJk5N81xtzxD5ltzsg/GcamXccmv0QE+OHfLu/ulx2Q/04z+Q+PvolRvR56nQ6MlvPHfoS+8woyjYkeHngI9R1q6FV9eH3tN/wSGwPp5MDA2sFEyeisyJg6Vu6dNBbtQe0IYzUDLVmagoorTXjfMwqVchRD7/ug0LF4V8Qh6YZZD5cHkA3kwvF+0fDNtzDG9KJaxB30BGPP6Q9gB2/ggGFvHKHO0xLkE4rnXLYhWXMenboxG/IfhLSSNihkl5BpnE3lIxYkONyw8RqG1E9R9p/1KLqlBMOo0bxnA6RJf0Hd9T/z7C6JPuJvD+HZuBayfCkkPoGIzXwK7fhDHLNd9hR4jOYSD+5eiwQ/JHEnyS8r8h97Gwr1o0nCP9m+2rKcTYINl7XOmO96pRITrAovc6Odr4xRDH3iaoCDPf+GPcmmlRyTb53UcANuXcV9EieMzd7xaeQ/AC6xYdLHyask7DI+TGIyBBk/d4HRdaNaFIKo3Y+heTfV5xLlhfEarvo4Psj/5IBFp8PzTJF5u4679cAgP0X+P0LP6MDo9NB//Aim9xkubxKbc4hP2z9Fx9n6DRn5d40xd/xDZsvMyb+r/CLBD/92WXNTMl/Mn9/YIf9T237YV+eQ4h8AE7mt2Rln3qZj2q6T+MPUtgqz0xaKsTuhFNeuv8KQmsXY0/PYt8R6L7irQjTZlm+448NZdol0Bu4NMRZi7yfF6UcqMD0NuJSYirRVW5Cx6Rc8H+PIEBZGV/qY/GOf/P/hhPzb6OykMzD7V2Ay4iWH0GhY9SjcbC7MIp8gZJzqBtNThWxDB8xTLEx+doZD8bIStKrf43dpIR4NNKHyRDMUdUU4UNwOTd0RbJ5chSHEhu86HL4+CmZyps2w0qWC+v7h6ecJBBYToWLFnl4k+CGJu33yb51fVuTfMNs/0YCSrwMw2aGYyL8bWBU5q3XGGsU03UT14xGwY4btRpZ94fZ8QT/7lE6Vp20/BHEPNwwYmW5c496lzg75n4yjM2wQ1Itw6R8YUTfg2L8CIF4sxe610slzIhuT/oJ24Ppkn0KUF8Zruepzicm/k35Z8sNJvNHp0JS+ngfyz0BWlITkoC04/Ot7aPvu4dBSC4/g03Yh5Z1k1Tl06kZQE81dgQlBfuUoZxu2MU+cYMwd/5DZP0PyT5BfJPjh365PqTnz5zfTyL/k/5WgRalD57GpA7/i74rQrGbQWbbdrXtWRwSexMsJBm2FNttsVv+K97phG4DbONQ3FMfrdGAajk1tm+EWTBLy/8U+1CtZvCuOs5DSRWm4M6CzDBBMhXGG+nzqth+R4VAXd8DCtdFT3vtF4GT9BNj3V5Fjvj2sDfnnKRZEOFy4Czc/jKP1fjNG7hUidtlRPB9uRfNTFXp/2TmFBTf0iQivQr+2G9XR+agfHsfT3U62lXlKzISkJwF+iOJOUBO45J/b4VmRfzewwW1jWq3j6vNFFIp/74JmvB3Xoyl+uH6b+Xs3yL/hHE+9Dkz9UasbVUzqQBB3w8zk3zotXuea9vcHQOSI/HNybBo2ON85sj9i+31o1PU4+qV1vxi+vQ6a8T9x6IsAEOWF8VoSF30cOfl30i8vMtRePcbvH0UCb9t+AiD6agcqZVrIK7PN52Xcsp1kZZ8gJo5ixefnkwerDdvI8iItvMVPioomBro6O7g16m2LMXf8Q6b/DMk/QX6JCPDDv13W+UXmi/nzG/OtPjPCUlCQcQHPujTQyK5gn/lWn2uQfeottMwwZBdOojguHfs370PJgVIUmPdVrsa+whuoysnFAcl2pK1PwU+5tejVqdCUbtPh/SsHD0ZYKB5dwrHYNByIL8TZnZw7C00COghpZZ1g1R2o2bMXBVsLcWZ7/FRCcDtWU9LaEmn/aFQ0aqHruIfyLSlIX7sVGZGn0DQ6feZfNFN9fNaaD/zWF+QiPzYf56s77R74tXrAjK3OJls87DVi7Vn8rWSheHET5Ynp2BuegfKaYbCmmX/eYkGAQ98wHL+vwUf9KB5sC528C0zxnXF8/DiBR0nGw9fu6OMfjXNNWqh6BzExWo8iuuXnE7dnOC6YLvHjQxB3gppARP6JsEFQ62z18Y/AocpuaBWtuLh+Ne8+9LZOy2KvG+R/8qB2H/SqN7iRloX8rYU4vdW4BZQk7n7hKLk7Cr3ib9zNyUFeXC5OnXyGIdZ6zz9xP+iwzk8RLd34PRTa3MEoPOEeJjQNKJ28gx5BXpiu4aKPIyb/Pk76ZZ8gbE17iBHWcOC3EmeTs3FAmm7tZ5M+Tl6t9/xP1Q1p1HUMaLtQLTblDrntrlY9LFhyXKPmTMYvAmW1Sujlz1GZlIqMsFQUlzVjjFWiMd102Jmg/pDUTCcx4NpLfKtPZ4Mskvwiwg953Lk20Pf2sb3gdusHDCs0YLUTGH33Cg2nCpFqJv7GH/mJsCfnOprfyKHS6qFXKyF//RBn1xgPVfmKsL+oHm1do9AwhltrqqHoeo2Gkiwk2O699AnCtm2/48W7UWgZPXRjvZCdyoDUsCWDA0jxklRcvt8FhZoFo+jD36czp2RsO1bDb+wQ6fDv96Ly9hv0D02AYRhoDPv+O16jJtmURKbrzVAfw/UNt/osrsfbvonJh6UNvazD5RjOdQh15trvOe8DIV17GDfuv8WQUgc9q8H4h7d4eaHAfKcn3mLhCoc+wdh17C2Y7qvYa5w1i4y5hSHNa5xfYTkASK5PIKLi72BYr8fwlUx6YJOTn/zh0zV+DLf1c1p/CPKLiPz7BMAlNkhqnV19YlHxZBxs902nt8Xlz6+m+jafX90h/wGQfJeFqw8/YFzDQqfowxtTn0ISd8N+9MXb8UtlK/oVOrDqMfQ2tk2S/9e5xlpPgg2XORSEhAMvwIzcRoHNvdTD4+5iXNOM08uMW2Bc5YX5Ws77OHLyb3iYk4N+efJaK7Et9jRqH3ViZNzQFzBQD3ah9Zc95ll7V/i2R/5FfpE43TAB9aNSbDedIyS03aPIv+HsybcpqKhqNT4wUwtFVyvqClIQY7KbFGOE/nEeD/KHfLnys8u6SoofXuyazzWR3LYFzoNP3hBth/pqPmJAEnAabRPvULmOe6Cbxno+xpraRHHtDgYk35dBpp3Ao0R6BzB3/EZlaZ5RDHx+DFDyb54d+fzBoAkhjBiIv45CelgCMqKKUPNahcHKvdP3CVPcWK3UUewKA7s0DrMVh1VI3/UzyrZnYK8kCTnxR3GtYQisvBZH/mM5jEr9P1v+p+1SbFEM8IkBSv4piaMkzgYD4Rsr8UHFgFH2QXb5MFK+okWHz6JD26J48jgM+EWg6PKbqe0YrB46hRyddVdRtjZ0Rne38Tg/2NRKqj/NZYoBz8QAJf+0mFHyTzFAMUAxQDFAMUAxQDFAMeAlGKDk30sCTUfnnjk6p3GjcaMYoBigGKAYoBigGOATA5T8U/JPR/oUAxQDFAMUAxQDFAMUAxQDXoIBSv69JNB8jhhpW3QGgmKAYoBigGKAYoBigGLAMzFAyT8l/3SkTzFAMUAxQDFAMUAxQDFAMeAlGFgg8g1FZu5dtH1QQacZx2BLDcrD1rt/B4P52o6XAGGmo/eNPx5E7VsNBipSsMHWZ1/FofRcEz4Ma8Goleh/XoOKcJHlEeY+gYgKPYobte2QKzRg1Ar0t9zHRamEI+Pe6NqpPpP6BSLyxyyUn/sLsg45VIpG/GJ6eI7h+y+jcPjnBnT2T4DRaTDW0YTb6VuwyeZhdM79xpddfLXjng+d28ZTW/O1bvBll20u0f/N5ESy5gK6dHLc2RRi/kzkE4IDl4bByM5hl78Fo+E/ZONy9Svjw5PUGO1oQW3ODjfz2dLenOSGTwCc1jESjJHICA1Tnqgz9SEnBz8lT4KxLe4c6p92Y0zNgFGPoq+xBufCRRwuSiLzKdf2zt8sSMh4DAUzhJYTPyE/7idUPhgCO/IYJ5ZbnojqutAFYX62452gcB1vi18k/9mK4uMP0K1koWdZDNqSf98wFFbJwQ41ozIxGenibJy72QudshlnVhgfnOUfjbOPBvDu2jmUJWQgb1spal6OQ694iNKl7t1D26U+k0V6FZIzatE73IPn50/j+NY07Fm3GbFfmOxahX0VH8AYdd69JgXFp19AwQyiZvMa8iLHl118tSO0DspnvtYNvuwy4ZG+2qtJpORfsqIIjXI9JmQ1OJ+4G3s2ZOBIzm/4I2vLJ08u2NOHz89c1zESjJHICA1bnqgz9eHMsR+ELTsv4XbxURRGpyFv5wnUvBiHfugeCheb/EsiY5Klr65isqCyjYHiZh42G2c0xUvy0TDKoLM0gbww+idgXrYjOLIkNEAHYfcxGQaa7uJ8fB5uvGWmk//FB/F0gkFbYZQFT/8nG7VyBj0/bzd/Jl4YbH5vAG14eBUGmSHckXJn9VzZT6CPYTZNdBmdg02oWLnKPpH334Grbxn0n02yrGIsTMIfXTp0HXcjL3wCwI9d/LXjqiDM6ffztW7wZRetP/bz0+gXIvLvK0bxHQX0PbdQ8I17EwlzmgtWsSaoYyQYI5Gxuq6r+joH33uizvPZh34iZB24iReyQUyoNRjvfoX6/GTLQy99w5B34gnaOgahGNeC1U1gWNaA37dEWvpOQz/4rwSUXWxGj3wCDMtAoxhGf0sl8r92jKnwLfcwwbzF5VXGSUI7fiaR+Xx57Ng2Iei0oFWrRWOaCDuyn2BY3oyKEDHK6rRgHhYjjnCLg3hZKeZjO0IIkOB18A2cWpbz346rHdPJv3hZCVq1OjzPCLMs3/luwC8NOjD3DyHKTkKLfAKxOfkBxtWtKP/BnRWoAIhc6GPY5lZ0axzMhzb83SGHUjmOkfYm3MncCqkJ777hKKtTg5FdQdbXU4QhPOgXyCaGUBu3zikhcR6vGdhl5Se+2vm8xWm+1g2+7HKOpc8bOyHoRkL+xUsK8UzNouNIrNXkghD0d6qDizpGgjESGac6WNWcucGbJ+o8f324Cpkn2qEZeY3be7OQFZaCwsIH6Nco8Txz41Q++W1E+TMG7IsqFMWlYX9cIa7UyaFXv0SFaWXfJxhZZ3vByptQmbQbmaHbsUe6D6V79mAHZ2uexY/BiPw+Fb/WyqGRXcSeL+1hj0TG3u/oZyY/L+jWjaImejXSyzrBsn24sWEN8ivHwMh+RardwEx3nmTtRczHdkxOoq/TYz7NJw7Iv8gwk/M3A3XzRexftgpin2BELt+FqhcsmL+KEWsi3JyOJnzFYTzu06DzdAo2cT6fdk1n3znSZ1EGaoZYDNwrR7F0J3avScLh0iaMscOo32YZoIQHFKL+rQba3lb8dbEGsv4RyIqTEWVHX1K9eLHLsCrCh3+c+W6OvpuvdYMvu0hx5a1yJORfsuYiuhkFauPcWUEkqHdzlCMiB3WMBGMkMkLDjifqPF99KF56BE0qJZ6kii0Tdz7GybMnx5HgFwCRkfzrbudjozEnJMsNk8E6tGSbfrcah6pVYDuu4cC3jmfxDX4U/7sQTydYfPz4EfrhZpxfP32bLYmM0GIiRH2M5D8EIv9QJCxfjw0+ITMg//OrHSEGTLA6OeikDPpGritFQ4cK+o8sWIaFXqXAhE6PiWv7EGHTiUauLsXTXjX6rhVg+8IZdMIO9BF/cxhNhsKUZSpMARD5x+DiCwbq2/mQTuoTiOjIi5D1d+NxcQnOnrgLWa8W6vbbKPrezZUIo3182cVXO0LAkaWjn191gy+7hBAjIetARv7Po1M3ZkP+g5BW0gaF7BIyZ1JjbGrXrPjKQR0jwRiJzKzoPAO/eKLO89WH4dE3MarXQ6/TgdFy/tiP0HdeQaZhctgO+Rct2oPaEcZqtS088BDqO9TQq/rw+tpv+CU2BlLD4MEWK36hSFi5HXvjjqKqrg/asVacX7vSWo5ExrZd+r+1D30CYNz2E2oZ2fmGGbf9HPuEbT/zq51pwKQAmgYgs48cdFLm732CIf1Oih3fSyAN+hlvtBq05kRwluIDIQ07g9bhCXRdzEEC4aqTpX2bQuJIn38dxDMNi47DMZxrr8Gxe1owT09MzWZ8uRu3P2jQfsgiI168Czc7WCiu7kWkWzjgyy6+2rHxk1u28PtbyxL//KobfNnlENufMWZC0kmy6hw6dSOoiebO6hsmr0bBvKpAsn8AxEsOoVHNoL1wMyffg5BxqhtMTxWyPZT8k2CMREZI8TTo4ok6z1cfhm++hTGmFzU745AUFGP1l/iDeGqm3y75z8C9IQbvimy22i0UY3dCKa5df4UhNYuxp+exb4mTczhfpuLWBxbDF9MQ7qjmkcg4+q2Xfz514PePXEQbtzOIv8lDw4i9A79BiA0vQeWJUuxdajP76b916sCvR7bDL6ERWiGYM30ckW3bBPtiM07eG4Z+4B4KOYkv+S4fD/s06LmUjXh7MwLmdpzg0CxjmM23fwZB5L8Nle0sNHVHLYPbhdtRZSD2v2dNFjTJ/1eKl1oV/trKPRC8CodvqMA8LsUWK/2c68OXXeTteBCePbpuOIm7W3Z5ULy4+SWA9+KlRWjRMJDlRVqIvZ8UFU0MdHVHpw4l+kXgZP0E2PdXkWM8vyPy8XzyLyLBGImMAOJo1Ud5os7z1Ifi74rQrGbQWbbdvKXHKlYGu90h/xw/RQSexEvbG4Fwvp+8zhcpuNHNYvRyhmPyTyJj2y79f3ISd0FC5hMoGDmelxQgL6Zg8rCG4VafZf+1IfgLk3C9i8U//7DoL0+2OsltKKYe2w4FguPZfBLffCnGjpB4pKzJx5/dLIavHULqyjgkLlttXk3auCwWGeFZOJb/PzxtU0E/9hpVmyz76w335s460wumvxZl6+ORstLyl/z9OkvHbtDHKQ4N9+d3pU8wdua9gJqVo+lwNjLWJKH4rAwTmve4Klo95Qv/BFx+rYXm7zv4JXorkoO34sDe2+hUa/C2yOb2gE714csuN9ohiZlgZDy4bjiNuxt2CSYWHjgI8YtAWa0SevlzVCalIiMsFcVlzRhjlWhMt6wqRqw9i7+VLBQvbqI8MR17wzNQXjMMVsgz/y7rGAnGSGSEFndP1Hm++nANsk+9hZYZhuzCSRTHpWP/5n0oOVCKAtP2VyLyvxr7Cm+gKicXByTbkbY+BT/l1qJXp0JTunH7rZ8E+QXncDopCwc2pmL/lkO4fLsbWl0vbknXTvXLJDK0nhLzuQUi3/XIzK1BW68KjFaFoZYaVIjsPOTLV4yDF99DpejE3QTOfmmTsz21HZP+9JUYNNzRvyT0EnrYf/DPP9w/PUYupRtH60HI/KUb2olRDLx+jvpTRdi7jLtMb5g92ITyRsamjan2GNMMnik+LnDoWh/D9cTIKaxF+wcVGJ0WY+1PcHXrJqsBbfgPOaisacfQOAM9q4Xqw994cmIfttluE3CmD192udOOyU+e8uqpdcNZ3A2+J7XLU+IkUD0l36agoqrV+PAuLRRdragrSEGM1epcIKRrD+PG/bcYUuqgZzUY//AWLy8UOLjbyOcnc0R1jARjJDJCi60n6jxffegnwp6c62h+I4dKq4derYT89UOcXWOcHCYh/74i7C+qR1vXKDSGM3+MGoqu12goyUKCqT/1j0LxuSfomJTRgxkfRs/Te/gtbpNl1p9ERmhxELA+C7hEjr7//EWfxoDGgGKAYoBigGKAYoBigGKAYmC2MEDJv4BHZrMVdNouLSgUAxQDFAMUAxQDFAMUA96JAUr+Kfn/pO0+tGB4Z8GgcadxpxigGKAYoBigGPBsDFDyT8k/Jf8UAxQDFPZWn10AACAASURBVAMUAxQDFAMUAxQDXoIBSv69JNB0lO7Zo3QaPxo/igGKAYoBigGKAYoBPjBAyT8l/3SkTzFAMUAxQDFAMUAxQDFAMeAlGKDk30sCzcdIkbZBZxwoBigGKAYoBigGKAYoBjwbA5T8U/JPR/oUAxQDFAMUAxQDFAMUA3YwEIz4qHNoeNEHxYQWWoUcPY1/4tSqIEw+ZVtrecaP7na+46cBC8S3nqjzbAy0zOR/448HUftWg4GKFKuHHU1e1DcUmbl30fZBBZ1mHIMtNSgPs/MgMKfBDURU6FHcqG2HXKEBo1agv+U+Lkol1k9w5bSxcWUpmgZYsK3lSPa3P8oikXHoOF7sMjzQhw//2LfPoe4cPwlBhuLnU/PCm/FDWBP843H5teHp4pZO5p9/tHiaanzyoyEXSGRc5gzVx2UtEVCtk6y5gC6dHHc2cR8aGIIDl4bByM5hF6fPCP8hG5erXxkfBqbGaEcLanN2YJOvQOuugPzsEhMu88pNH3uz7Xz5kkcfipcU4NGYHkN1FSiSJiFrYwYO7c7Hnm8DIfIPxdbgeKSsSkPlCxaeQP5nQ2en/IevmPLczgLJf7ai+PgDdCtZ6FkWg9PIfxASMh5DwQyh5cRPyI/7CZUPhsCOPMaJ5canvJEo5R+Ns48G8O7aOZQlZCBvWylqXo5Dr3iI0qWB00abG348iqd9oxjq04BxQP5JZBwXLp7s8uGrHTcLJInP50CG4meGeeHN+CGtCQsTUd2lRXtZGnatjEfK5F8sEhZz6g+JjKt8oPpMq8PW9VNYtY6U/EtWFKFRrseErAbnE3djz4YMHMn5DX9kbXE48WRt91zXZmH5eW594c2284Uzfn0oWf8berR9+EMS7Lg++EXg9CPGM8i/qR/gQWfX/IevmPLfzoLdx2QYaLqL8/F5uPGWmU7+/RNQ2cZAcTMPm42zJOIl+WgYZdBZmuBW8RQvDLaSDw+vwiAzhDtS7sxNAMSLd6FaNgzZkSQcvCC3S/5JZJwWLb7s4qsdEyA96jUIFD8zzAuvxk8AiGrCoj2oHdbgcdJqx50PiQxBblF9nHQyAsMqEfn3FaP4jgL6nlso+Gb6JJPTPoIAL7Pye4H5eVZsdORbb7bdkU/c/ZwvHy5Mxa1e2xVXw+org7afoqy4nMgFkRYvzcU9mRzjahZ6RoOxt824k5GASNPKm28Y8k48QVvHIBTjWrC6CQzLGvD7lkjLThQSGYOv/ETIOnATL2SDmFBrMN79CvX5yYgxXcvkTxc6u8Y9Af8xXUuArwtEvoEQGxTz346rHdPJv3hZKVq1WjSmibAj+wmG5c2oCBGjrE4L5mEx4mwdSmxkIDYnP8C4uhXlP3Bm8Pw24Oj1AQxU5yLeLxg55+2QfxIZF3rwZRdf7bgGmpNO2YWts9o2xc+M8sLr8WOFXQc1YXEhGtWj+Cs1CnGLQ6bqldXvAiAikbH9jcv/qT7c2iE0rJKQf/GSQjxTs+g4EmtNVlzG/vPVW6H5mYuB2X7vzbbz5Vv+fLgasStikJJ0C4O6fvyZFI+koJjJv4R/26wCuCLSC6NwIDEL+0TbkS7OxMlLbVAzPagWGyd+/Tai/BkD9kUViuLSsD+uEFfq5NCrX6JihfFaJDI+q5B5oh2akde4vTcLWWEpKCx8gH6NEs8zN1rXAFc6k9QIF/yHr5jORjvmPf+OyL9k7UV060ZRE70a6WWdYNk+3NiwBvmVY2BkvyKVs6/SHQXDVxzG4z4NOk+nYJPZyUHYkvoQI103kT85S2OP/JPIuC7cfNnFVzvu+E6Qsg4Gj7PlH4of1xgXJE7MuT5df/sxDYBkRQmevRvAiEID/UcGyo6nqE6MRgSnLRIZd/1B9bGO0WzlsrtxMcmTkH/JmovoZhSojbNeXTa1IcRXofl5Ln3kzbbz5We+fSgJu4JebQ+qwziTtJzaO6m3u0T6qxw8UDL4+6BxBcFI7LlnBiTLDRPPOrRki6cmfAhkxEuPoEmlxJNU428m9QxF0a1xME+OI8GPU9Pc1dnWZu7/DvgPXzGdjXbcIP8hk4c7EpavxwafkBmR/8jVpXjaq0bftQJsX2gJhnhJDur75Phrpylw08k/iQyJoywJMjO7+GqHRGdByzgA/2z4h+LHkjOCxgS3OLp47yim1vYFIXL5TpReaINK14vbUs6BX3P7JDKu/Uf1me6j2chl6/hOv6az78nI/3l06sZsyH8Q0kraoJBdQian/3F2rbn8Tmh+pra7h8u59Je9a/GNHz7Iv2RpCiquNOF9zyhUylEMve+DQsfiXZFxRc4OsRcZtnKOMJZVOwKZ8OibGNXrodfpwGg5f+xH6DuvIJM7WU3JvxHYDsibZQkp1LLc7htm3PZzzM1tP4GQhp1B6/AEui7mIIEbCJ8ARKU2QPuRBWsTtI96PRjVM/z8XSCRjL2EsP2ML7v4asdWP4/7n+IHok/IC4of5zXBbh4sTMYfXSxGf0tHuJn023TQJDJ2f0v1setznwAIDauSVefQqRtBTTR3Vt8wMTUK5lXF5B3ixEsOoVHNoL1wM2fJPwgZp7rB9FQhW4DkX2h+doSH2fjcm23ny598+3DG5N9PitOPVGB6GnApMRVpq7YgY9MveD7GuCD/Gbg35J5M+OZbGGN6UbMzzrxFybRVKfEHsfVtSCn5d07+Rf5bpw78/pGLaNOB32/y0DBi78BvEGLDS1B5ohR7l05fIpJ8l4+HfRr0XMpGPHf5xdgJS76OQKJxT9lUwOJRWj0Cpq0KBcERkPoHgETGkkRO9OHLLrfasSEodsmHh8o4IP8UP4Z48oVDD8WGE5y7qgmWXObY/kUKbnS7IP8OZZzEwicAVB8n/hFYrZu8X7eGgSwv0kLs/aSoaGKgqzs6dcDPLwIn6yfAvr+KnK9NB36FTf7dq5mcvHCSZ3bzSIjyAsOYx/iNG0uefUhE/n3FKKvXgak35h1Xny/2oV7J4l1xnCVPF6XhzoCOd/Iv/q4IzWoGnWXbrYk+Vx/Te2c6m2Sc9d1mGcdnZoWMnwWiL8XYERKPlDX5+LObxfC1Q0hdGYfEZauNM/1BSMh8AgUjx/OSAuTFFEwexDDc6rPsvzYEf2ESrncZToez6C9PtpzSnnRSCLLO9ILpr0XZetPt+qZek79fZwEF16E+07f9THemExmn+vBllxvtWNk2T4o2xc8M88Kb8UNSE1YiM+sCfk3bh9zIVOzfchhX7nZDy3C3/ZDIGPPNaU2g+oic+kdgWPWLQFmtEnr5c1QmpSIjLBXFZc0YY5VoTI8w9ykRa8/ibyULxYubKE9Mx97wDJTXDIMV6My/YbKAuM+dd32KN9vOFyfg14dE5N8nGFln+6BXvcGNtCzkby3E6a3GLT3+0aho1ELXcQ/lW1KQvnYrMiJPoWnUvVl9kd1tPzarAz5rkH3qLbTMMGQXTqI4Lh37N+9DyYFSFHxvw1ed6WzKK6f1MACu+TNfMeW/nQWS0EvoYbkPzzG812PkEmdJ3Xc9MnNr0NarAqNVYailBhUiOw/58hXj4MX3UCk6cTfBtG/fqLTfJpQ3MjYP6pm6LmOapTE53PzqhNiTyDjTx/B7Puxypx2zzvwHcvqgaG6uQfEzw7zwZvyQ1ARfEXJLGtD2fhRqnR7MxCh6G2txeYvUcuCXRMaUe85qAtUHImf+ESBWJd+moKKq1fjwLi0UXa2oK0hBjNXKciCkaw/jxv23GFLqoGc1GP/wFi8vFGCHzdbTz1VHp12XtG8y4Xo+vXqz7XzFkUcfkpF/w6ppFq4+/IBxDQudog9vTmdCatwtEv79XlTefoP+oQkwDAONYd9/x2vUJBsH6STEnkTG4D8/EfbkXEfzGzlUWj30aiXkrx/i7Bpb8u9c58mcdFEPifgPXzHluR3LgV+eG55WzGj7ju9RTn1DfUMxQDFAMUAxQDFAMUAxQDEwBxig5H8OnEwHQnOzCkH9TP1MMUAxQDFAMUAxQDFAMeAcA5T8U/JPR9kUAxQDFAMUAxQDFAMUAxQDXoIBSv69JNB0FOx8FEz9Q/1DMUAxQDFAMUAxQDHgDRig5J+SfzrSpxigGKAYoBigGKAYoBigGPASDFDy7yWB9oaRLLWRzthQDFAMUAxQDFAMUAxQDDjHACX/lPzTkT7FAMUAxQDFAMUAxQDFAMWAl2CAkn8vCTQdBTsfBVP/UP9QDFAMUAxQDFAMzA4GNm36H96PjeLN4W02D4CdnevRODr3q5n8b/zxIGrfajBQkTI9ML6hyMy9i7YPKug04xhsqUF5mJ2HfDkl0oGICj2KG7XtkCs0YNQK9Lfcx0WpxPwkRttgbVxZiqYBFmxrOZIdPIyFRMa2Xdv/ndru1Cajc3nxj/NA2eosmP/5sn2+tkOCH6+VIawJ/vG4/Nrw5HDuwwi1eJq61jJLRSLj0s9UH5d1ha88dRkL1/VQsuYCunRy3NkUYsGBTwgOXBoGIzuHXQ76DJc28qDbjK8hID/P2BZ3/enNtrvrK0fygvNhIOLSn0D9UQ9FVTYi7ektOJ1d16A5zw17fvvEzxZI/rMVxccfoFvJQs+yGJxG/oOQkPEYCmYILSd+Qn7cT6h8MAR25DFOLJ/+xDSHzvCPxtlHA3h37RzKEjKQt60UNS/HoVc8ROnSQE7xnnL4hh+P4mnfKIb6NGAckH8SGYf6+ATAte0kwefJP58YQGf2zf53fNk+X9shwY8Xy5DWhIWJqO7Sor0sDbtWxiNl8i8WCYs59YdExlWOUX2m1WHrGsJXnvKD+flL/oXlZ2sM8BM7x216s+18+VagPvRdhx2hCUj4yp6dAtXZVZ/hwd8v2H1MhoGmuzgfn4cbb5np5N8/AZVtDBQ387DZ+Khm8ZJ8NIwy6CxNcDhrby+5xQuDreTDw6swyAzhjpQ7cxMA8eJdqJYNQ3YkCQcvyO2SfxIZezpYPguCS9tJAsujfyy62UsOAX7Gl+3ztR0S/Hi5DFFNWLQHtcMaPE5a7ZicksgQ+Jrq46TO8JWnBHEgqYXzlvwLzM8kseBNxptt5ykvRLz6MAQJ0pO49+AdhpRasDotVH3v0Zhv5H6+Ycg78QRtHYNQjBu+n8CwrAG/b4k07yARLy1Ci9ayaqu7nY+NtrbyqrOTGmZ7XS/+f4HINxBigwP8t+Nqx3TyL15WilatFo1pIuzIfoJheTMqQsQoq9OCeViMOOOAwP3kD8Tm5AcYV7ei/AfODJ7fBhy9PoCB6lzE+wUj57wd8k8iQxJUF7aT2DR7/hE+gPmyfb62Q4IfKsPFuYOasLgQjepR/JUahbjFIVP1yja/SWRsf+Pyf6oPF5985Sm3zZm8n6/kX2h+nkmM3P2tN9vurq8cyfPnwyDEJ/4JOaNBf90VnN21D7nSdBxMKcGxsHVTddhvI8qfMWBfVKEoLg374wpxpU4OvfolKlYET03W+IciISAGScG7UNnCwB75509nbn9C3zvCiOFz855/R+RfsvYiunWjqIlejfSyTrBsH25sWIP8yjEwsl+R+on7KsNXHMbjPg06T6dgk7kTDsKW1IcY6bqJ/G8MW4HskX8SGTeD7mDg48xxpu9myz+m9oX8ypft87UdIcdOiLrZrwkBkKwowbN3AxhRaKD/yEDZ8RTVidGIMNcNMhl3bab6WNdRvvLU3Tg4kp+v5F9ofnbk/9n43Jtt58ufvPlwUQpudusx8eAYtjnieUbyzyX0kuWGCWMdWrLF1hM1fhE4/cg++edNZ06fwJc/52s7bpD/EIgMI7jl67HBJ2RG5D9ydSme9qrRd60A2xdaOhjxkhzU98nx104TaKaTfxIZt4PFC/nnzz9u6/+ZAG9J2JnZPl/b8ZQ4CkFPRzXBWrcgRC7fidILbVDpenFbyjnwa84BEhlLzbFu3/I51cfiC5OP+MpTU3szfZ3/5H9mdXWm/v0cvxcaxj6HD2Z6Tb58KFlxCm06HZ5niqxJvLnWBkBkh/yLDFswRxh0HIm12uYtIiL/3of5mcb7U3/vkvxblmNCLQDwDTNu+znm5rafQEjDzqB1eAJdF3OQYDOajEptgPYjC1arA2P6Yz/io14PRvUMP38XCBIZt50xA/LPr3+md7hu28JNzFl+z5ft87UdIcdOOLo5rwl29VyYjD+6WIz+lo5wRxgnkbH7W6qPXZ/7BICvPHXUvrufS1adQ6duBDXR3DNjhompUTCvKhzeIc7d68y1vND8PJf2e7PtfPmZLx9KfjiJNzodmtKd3NnRLvnPwL0hBu+KbMi/b7jDmX++dObLh97QjkvyL/LfOnXg949cRJsO/H6Th4YRewd+gxAbXoLKE6XYu5Szj9/YyUq+y8fDPg16LmUj3m860ZV8HYHEoBgkmf/iUVo9AqatCgXBEZD6B4BExhI45/qY5VySfyftuOWf6TabdbBLRAQu75btfPlQaO0IPEYCx5WrmmA3P75IwY1uF+TfoYwT/BjuAOaiRnm1Pm7l++znxeRBQg0DWV6kZYbRT4qKJga6uqOI+eTzaLOvu10cmXJVYH52qqtJZ75evdl2oflw0S7c/KDH+P2j0yZqzZhwi/yH4nidDkzDMcTb5iaNu+ObWfCFC5t2Foi+FGNHSDxS1uTjz24Ww9cOIXVlHBKXrTbO9AchIfMJFIwcz0sKkBdTMHmgw3Crz7L/2hD8hUm43mW4HzeL/vJk82nvKaCEIOtML5j+WpStN92ub+o1+ft1luJtpeD0bT9m0JnlnMg41ScArm03dgJO23HDP2adP3PnwpsebtjOlw+F1g5vvpwvmHDHDpKasBKZWRfwa9o+5EamYv+Ww7hytxtahrvth0SGJJepPiK+8msu8sIvAmW1Sujlz1GZlIqMsFQUlzVjjFWiMT3CQZ/iDj4/l6wbdXUu/Dyn1/Bm2/nCG18+DMLWtIcYYQ0HfitxNjkbB6TpyN9aiNNbjbP67pB/nyCkGc6NqjtQs2cvCrYW4sz2eGOe8qUzXz6c/+0skIReQg9ruQ3T1IN09Bi5xFlS912PzNwatPWqwGhVGGqpQYXIzlKQrxgHL76HStGJuwmmfftGJ/ptQnkjY/OgnqnrMg5naZwQe3NBciLjTB/DLB+J7YbruGhHROofs87zCFiktvPlQ6G1Mx9jOlc2kdQEXxFySxrQ9n4Uap0ezMQoehtrcXmL1HLgl0TGZJMz/FB9PK7WSb5NQUVVK/pHNGAZLRRdragrSEGMnZXl6RNHAq7DpHXVhOv59OrNtvMVR958uBLbYk+j9lEnRsZ10LMM1INdaP1lz9ROELfIfwDES1Jx+X4XFGoWjKIPf5/OhNS0CsCbzgLOa77iy0M7lm0/PDTmUcWV2jvny0wUH7QoUQxQDFAMUAxQDFAMUAx8XgxQ8k8HAXQQQDFAMUAxQDFAMUAxQDFAMeAlGKDk30sCTUfZn3eUTf1P/U8xQDFAMUAxQDFAMSAEDFDyT8k/HelTDFAMUAxQDFAMUAxQDFAMeAkGKPn3kkALYaRJdaAzHhQDFAMUAxQDFAMUAxQDnxcDlPxT8k9H+hQDFAMUAxQDFAMUAxQDFANeggFK/r0k0HSU/XlH2dT/1P8UAxQDFAMUAxQDFANCwAAl/5T805E+xQDFAMUAxQDFAMUAxYAdDAQjPuocGl70QTGhhVYhR0/jnzi1KgiTT9nWWp4Tpbudj40C96En6jwbgwUz+d/440HUvtVgoCLF5sm8hodchSIz9y7aPqig04xjsKUG5WF2HvLlNOiBiAo9ihu17ZArNGDUCvS33MdFqcThkxg3rixF0wALtrUcyf72R4skMvYd574+9tvhyz/27XN4Tae+nvu2KH5c49lhLHnJr7mPuUN7iLFJmIP+8bj82vDkcEsn888/WjxNXWvpqEhkXOpF9XEZUwFhVbLmArp0ctzZFGLBgU8IDlwaBiM7h12cPiP8h2xcrn5lfBiYGqMdLajN2YFNpgcMucTGHOeXgPzsEhN8+86bbefLlzz6ULykAI/G9Biqq0CRNAlZGzNwaHc+9nwbCJF/KLYGxyNlVRoqX7DwBPI/Gzo75T98xZTndhZI/rMVxccfoFvJQs+yGJxG/oOQkPEYCmYILSd+Qn7cT6h8MAR25DFOLA/iFF0XxdE/GmcfDeDdtXMoS8hA3rZS1Lwch17xEKVLA6e1s+HHo3jaN4qhPg0YB+SfRMZh4XJTH4ft+PDkH54D61hfF3FyUw+KHzI8O46HF+OHNAcXJqK6S4v2sjTsWhmPlMm/WCQs5tQfEhlX2Kb6TKvD1rgVFlZJyb9kRREa5XpMyGpwPnE39mzIwJGc3/BH1haHE0/WdvNbM123LSw/u9aXT/94s+18+ZFfH0rW/4YebR/+kAQ7rg9+ETj9iPEM8m/qB3jQ2TX/4Sum/LezYPcxGQaa7uJ8fB5uvGWmk3//BFS2MVDczMNm4yyJeEk+GkYZdJYmuFU8xQuDreTDw6swyAzhjpQ7cxMA8eJdqJYNQ3YkCQcvyO2SfxIZV0WLVB+n7fDoH6fXMQFWUK9BoPixJKUjPDuNq1fjJwBEObhoD2qHNXictNpx50MiQ5A7VB8LnqfhVmBYJSL/vmIU31FA33MLBd9Mn2SaZiMBRmb9NwLz86zby/W5N9vO9cNM3vPlw4WpuNVru+JqWH1l0PZTlBWXE7kg0uKlubgnk2NczULPaDD2thl3MhIQaVp58w1D3oknaOsYhGJcC1Y3gWFZA37fEmnZiUIiY/CbnwhZB27ihWwQE2oNxrtfoT4/GTGma5l860Jn17gn4D+mawnwdYHINxBig2L+23G1Yzr5Fy8rRatWi8Y0EXZkP8GwvBkVIWKU1WnBPCxGnK1DiY0MxObkBxhXt6L8B84Mnt8GHL0+gIHqXMT7BSPnvB3yTyJDrIeps3Ogj4t2Zs8/Jr0E/krxYySkFD+ui6UrLDvw4eJCNKpH8VdqFOIWh0zVK9u8JJGx/Y3L/6k+3JgKrdaRkH/xkkI8U7PoOBJrTVZcxt4VVmfve6H5mYuB2X7vzbbz5Vv+fLgasStikJJ0C4O6fvyZFI+koJjJv4R/26wCuCLSC6NwIDEL+0TbkS7OxMlLbVAzPagWGyd+/Tai/BkD9kUViuLSsD+uEFfq5NCrX6JihfFaJDI+q5B5oh2akde4vTcLWWEpKCx8gH6NEs8zN1rXAFc6k9QIF/yHr5jORjvmPf+OyL9k7UV060ZRE70a6WWdYNk+3NiwBvmVY2BkvyKVs6/SHQXDVxzG4z4NOk+nYJPZyUHYkvoQI103kT85S2OP/JPIuF+Y7evjup3Z8o87vhSErIPB42z5x368SLBBIuM67rY+t6+P63Zmyz+2+nnC/458KFlRgmfvBjCi0ED/kYGy4ymqE6MRYa4bASCRcdcHVB9r/AoNqyTkX7LmIroZBWrjrFeX3cXCXMoLzc/Udus8mEt/fMq1+MaPJOwKerU9qA7jTNJyau+kju4S6a9y8EDJ4O+DxhUEI7HnnhmQLDdMPOvQki2emvAhkBEvPYImlRJPUo2/mdQzFEW3xsE8OY4EP04s3dXZ1mbu/w74z6fEb65+4wb5D5k83JGwfD02+ITMiPxHri7F0141+q4VYPtCSzDES3JQ3yfHXztNgZtO/klk3HWeI31I2rEkGn/+Ibmu4GQcgH82/OMoXiTYIJFx17eO9CFpZzb8Q3JdocmQ+TAIkct3ovRCG1S6XtyWcg78mgsxiYyl5jjyA9Vnuo+EhlUy8n8enboxG/IfhLSSNihkl5DJ6X8cYWGuPxean+fSfm+2nS8/8+1DPsi/ZGkKKq404X3PKFTKUQy974NCx+JdkXFFzg6xFxm2co4wllU7Apnw6JsY1euh1+nAaDl/7EfoO68gkztZTcm/scg7IG+WJaRQy3K7b5hx288xN7f9BEIadgatwxPoupiDBG4gfAIQldoA7UcWrE3QPur1YFTP8PN3gUQy5EnkXB+Sdvj1z/QOl0QHQchQ/EzDM0lcKH4+IQcXJuOPLhajv6Uj3Ez6bXKHRMbub6k+jnArNKxKVp1Dp24ENdHcWX3DxNQomFcVk3eIEy85hEY1g/bCzZwl/yBknOoG01OFbAGSf6H52REeZuNzb7adL3/y7cMZk38/KU4/UoHpacClxFSkrdqCjE2/4PkY44L8Z+DekHsy4ZtvYYzpRc3OOPMWJdNWpcQfxNa3IaXk3zn5F/lvnTrw+0cuok0Hfr/JQ8OIvQO/QYgNL0HliVLsXTp9iUjyXT4e9mnQcykb8dzlF2MnLPk6AonGPWVTAYtHafUImLYqFARHQOofABIZSxLNTB+idtzyjw1BsUs+PFTGAfmn+DHE0wkOvRw/rmqCJQc5efFFCm50uyD/DmWcxMInAFQfJ/4RGFYn79etYSDLi7QQez8pKpoY6OqOTh3w84vAyfoJsO+vIudr04FfYZN/92omJy/mQ38iMIzZrT9C9zPPPiQi/75ilNXrwNQb847roy/2oV7J4l1xnCVPF6XhzoCOd/Iv/q4IzWoGnWXbrYk+Vx/Te2c6m2Sc9d1mGcdnZoWMnwWiL8XYERKPlDX5+LObxfC1Q0hdGYfEZauNM/1BSMh8AgUjx/OSAuTFFEwexDDc6rPsvzYEf2ESrncZToez6C9PtpzSnnRSCLLO9ILpr0XZetPt+qZek79fZwEF16E+07f9THemExm+9HHajhv+sbJtnhRtih/XeKb4cXCXHpKasBKZWRfwa9o+5EamYv+Ww7hytxtahrvth0TGmG9OY0H1ETn1j8BqnV8EymqV0MufozIpFRlhqSgua8YYq0RjeoS5T4lYexZ/K1koXtxEeWI69oZnoLxmGKxAZ/4NkwXEfe6861O82Xa+OAG/PiQi/z7ByDrbB73qDW6kZSF/ayFObzVu6fGPRkWjFrqOeyjfkoL0tVuREXkKTaPuzeqL7G77sVkd8FmD7FNvoWWGIbtwDlNYmAAAIABJREFUEsVx6di/eR9KDpSi4HsbvupMZ1NeOa2HAXDNn/mKKf/tLJCEXkIPy314juG9HiOXOEvqvuuRmVuDtl4VGK0KQy01qBDZeciXrxgHL76HStGJuwmmfftGpf02obyRsXlQz9R1GdMsjcnh5lcnxJ5Ehi99nLVj0IPUP2ad+Q/k9EHR3FyD4sc2d/7BNDxT/Ngn/yQ1wVeE3JIGtL0fhVqnBzMxit7GWlzeIrUc+CWRMeWes1hQfSBy5h8B1jrJtymoqGo1PrxLC0VXK+oKUhBjtbIcCOnaw7hx/y2GlDroWQ3GP7zFywsF2GGz9fRz1dFp1/XiPsWb+9NpODDVLXdfecQPGfk3rJpm4erDDxjXsNAp+vDmdCakxt0i4d/vReXtN+gfmgDDMNAY9v13vEZNsnGQTkLsSWQMfvITYU/OdTS/kUOl1UOvVkL++iHOrrEl/851noyFi3pIxH/cjd0cyVsO/M7RBXkDN9XXPqGifqF+oRigGKAYoBigGKAYoBigGHCAAUr+HTiGDlLmZuWA+pn6mWKAYoBigGKAYoBigGJg7jBAyT8l/3RkTDFAMUAxQDFAMUAxQDFAMeAlGKDk30sCTUfUczeipr6mvqYYoBigGKAYoBigGBAqBij5p+SfjvQpBigGKAYoBigGKAYoBigGvAQDlPx7SaCFOvqketGZEYoBigGKAYoBigGKAYqBucMAJf+U/NORPsUAxQDFAMUAxQDFAMWAcwz4x+BIaRXObxYZnwPFE1n1DUPBySd4dTrD8VPbaWycx8ZN/1Dy76bD6MiUp2Snfuc1kSkuKS4pBigGKAYoBmYVA1/k4pHhqdr5m8wP0ePlevbu4U85wqxyBDP53/jjQdS+1WCgIsXmybymZApE5I9ZKD/3F2QdcqgUjfhlmelx6QEQfRWH0nNN+DCsBaNWov95DSrCRW4CJBBRoUdxo7YdcoUGjFqB/pb7uCiVWLfjH4/Lrw1PEuY+YEmLp6lr7Tpr48pSNA2wYFvLkezuQ118Q5GZexdtH1TQacYx2FKD8jA7DzhzBVS+2nF1nbn+ni+75ms7cx0Pj7oej/nuZk2w32EJTR/DAwRp/bEfqwBI1lxAl06OO5tCOHU/BAcuDYORncMud2u9AHPHab9Mgg2+ZObSNyQ6z6U+nnit2fLhfCH/s+UfD8LKAsl/tqL4+AN0K1noWRaDdsn/KiRn1KJ3uAfPz5/G8a1p2LNuM2K/MA4MfMNQWCUHO9SMysRkpIuzce5mL3TKZpxZEcwpzKaBhINX/2icfTSAd9fOoSwhA3nbSlHzchx6xUOULuUMNBYmorpLi/ayNOxaGY+Uyb9YJCye/gS3DT8exdO+UQz1acC4Tf6DkJDxGApmCC0nfkJ+3E+ofDAEduQxTiyffi1HndTk49p5aceB3z4b4ITmH6HpI7R4CUwfPvPdjZrgME+Fpo8PxbPDWPnMb/Lvul8mwQZfMnNZN0h0nkt9PPFas+jDeUH+Z9E/n42LuY/TBbuPyTDQdBfn4/Nw4y1jl/xvFF1G52ATKlausk/kFx/E0wkGbYVRlhn6/5ONWjmDnp+3Wz4jcIx4YbCVfHh4FQaZIdyRcmZ3Fu1B7bAGj5NW29fHeB3x4l2olg1DdiQJBy/I3Sf//gmobGOguJmHzcbHVIuX5KNhlEFnaYKVns46KRFf7RD4z6kefP+eL7vmazt8+3setsdbvhPWBFf5ISh9hJYXAsPf/J35D4LLfpkEG3zJzGXcSXSeS3088Vp8+vCrWByrMOzoMOzEGENv498YZG22/fhHIO/ofbR/GIdOo8JgSy0uRUfY8KMQJEhP4t6DdxhSasHqtFD1vUdjvpFHTdv2EwjphgtoU6rQVpqEKCP/EvmJkHXgJl7IBjGh1mC8+xXq85MRY/reJwDifyfiVHktXr76gKGRCTAsC61Sjpa8mCmd+PSPJ+LDqPMCkW/g1MEN/+242mGH/PuGoujWOJgPbfi7Qw6lchwj7U24k7kVUhMhXlaCVq0OzzPCLIdAfDfglwYdmPuHEPXJDgrE5uQHGFe3ovwHzkz74kI0qkfxV2oU4haHWK7JvY7fBhy9PoCB6lzE+wUj57z75F+8rBStWi0a00TYkf0Ew/JmVISIUVanBfOwGHEcwDkjFXy14+wan+M7vuyar+18jph49jVnkO8kNYFbH4jef159hJYXQsPW/CX/hu1ezvtlEmzwJTOXcSfReS718cRr8eZDXxEOVQ2CVbbh3oH9yIvLx5kzzRi2Iv/rkFPeBd3EO9Tl70dudC7OXXsPjbYLNyPXGSdngxCf+CfkjAb9dVdwdtc+5ErTcTClBMfC1k3xNyvyH4TYqMtoGxuDrCQF0WaetQqZJ9qhGXmN23uzkBWWgsLCB+jXKPE8c6N5sCEJOoMOnQbtF4/haFwa9obvwv64PBwIXDmpD2/+IepD3J+RnyvMmff8ixyR/0UZqBliMXCvHMXSndi9JgmHS5swxg6jfpuR7BtGUn8zUDdfxP5lqyD2CUbk8l2oesGC+asYsebgueeI8BWH8bhPg87TKdjEcbRkRQmevRvAiEID/UcGyo6nqE6MRoRZJghbUh9ipOsm8r8xbBf6NPIvWXsR3bpR1ESvRnpZJ1i2Dzc2rEF+5RgY2a9IJdxTylc7cwUK0uvwZdd8bYfUj1Ruqi58er4HwHVNcK/2GGLyufURWl4IDafzmvyb+jIH/TIJNviSmcu4k+g8l/p44rX48qHkv8fRqtFCli81E2uRzbYf8bIitKgZtB+Otcj4x+LiCwaa+iLEG7jfohTc7NZj4sExbHPEmUzk/84hpKX/iV5lHx7t3YJIUx4YZvSXHkGTSoknqWLOhK9xcvrJcST4TdX4KfI/htpYzm4RTjt8+ccTscHV2SX5F39zGE1aHVqyOA73j5kMrvp2PqRGp0auK0VDhwr6jyxYhoVepcCETo+Ja/s4pJy8A45cXYqnvWr0XSvA9oWOfheEyOU7UXqhDSpdL25Lpw78ipfkoL5Pjr92mnSeKfkPgcg/FAnL12ODT8gMyP/M2uEGTgjvLUk0M7vmaztCiJGn6DCTfLe20X5NsJZxVE8snwtBH6Hlhbs+nG15Sv4NE1OOay8JfkhkZjuO3PaFpg9XN095z5cPw2NuQcF8QHUYZ9eFDfkP33wLY0wvqkXcs53B2HP6A9jBGziwyDAxcwptOh2eZzq5PaiR/OuVSkywKrzMjbYMJowcMzz6Jkb1euh1OjBazh/7EfrOK8g0DizIyb/j3PGUWM9ET5fkX/Svg3imYdFx2LhfajIQa3DsnhbM0xPm0daUEsGQfifFju8lkAb9jDdaDVpzbPd+WTpY+4oHQhp2Bq3DE+i6mIMERyNFzkhOtDAZf3SxGP0tffIesVGpDdAaBiE2APmo14NRPcPP33EOD3PbsXlvWR4KtYw0fcOM236OfcK2n5m1Y99frvw5e98LzT9C00do8RKmPjPPd7t22dQEuzI2+T4lIxx9KJ6d1y7JqnPo1I1MEWBzLA2TM6NgXlW4f2c3cxvOr0uOJR7acTDzT4INvmTm0l4SnedSH0+8Fl8+NBH762IOsXeL/P8xRf5/OIk3Oh2a0p3cJdFI/pmmm6h+PAJ27BUqIznbyA0rscaBRs3OOCQFxVj9Jf4gxkZj/roi/3z5xxOxwdXZNfn334bKdhaauqMWsrtwO6o6WCh+zzI7nNuo6IvNOHlvGPqBeyhcYku0gxAbXoLKE6XYu5QzojQF7rt8POzToOdSNuKNyzhWbdsr0F+k4Ea3hfxLvo5AohU44lFaPQKmrQoFwRGQWg0onOjjv3XqwO8fueZ9Z+Jv8tAwYu/AL1/t8NBh2PPRbHz2WfzDl5/5aseD4jUbGJhhmxIe8t1ufbCpCRYZJ3E33EFGSPp8lvzyHDyLlxahxXDP8bxIyyyhnxQVTQx0dUetDgFa4u859k3q7ID8i0iwwZfMDHPcLd+T6DyX+njitXjyofi7IjSrGbwvSbA8eMuG/JNt+9mFmx/0GL9/1PFkrmnbz+18bPwiCsW/d0Ez3o7r0abdGwEw6dNZtt0+7zTGyhX5J8odT4y7mzovEH0pxo6QeKSsycef3SyGrx1C6so4JC5bbZztDsbOvBdQs3I0Hc5GxpokFJ+VYULzHldFlrvtbFwWi4zwLBzL/x+etqmgH3uNqk3WI7fJIrAwCde7DPfoZ9FfnmzzTIEQZJ3pBdNfi7L1plt4Tr0mf7/OWOBXIjPrAn5N24fcyFTs33IYV+52Q8tYtv1MLzZOtv041ScICZlPoGDkeF5SgLyYAlypk0/e6rPsvzYDF77acTOA022dy87tM/iHLz/z1Y5HxWsusUFyLb7y3Y2a4DTuQtPnM+SXJ+HZLwJltUro5c9RmZSKjLBUFJc1Y4xVojHd3RVnErzOoYzLfpkEG3zJzKHdhtvbkva5noTVOdWVLx+uxb6zXWA0fWg8fhgHpbtxYNsVtOm4d/tZaz7wW1+Qi/zYfJyv7px24Hdr2kOMsIYDv5U4m5yNA9J05G8txOmtxrMCXPJv8JV/BA5VdkOraMXF9SaeuQbZp95CywxDduEkiuPSsX/zPpQcKEXB9xY+5pL8U4xNHnxeIAm9hB6W+7Asw3s9Ri5NbaGZJJd+YuQU1qL9gwqMToux9ie4unUTh7gHIfOXbmgnRjHw+jnqTxVh7zL7hy1EvmIcvPgeKkUn7iZYRnVT19mE8kbG5uFdU7oxppkcXxFySxrQ9n4Uap0ezMQoehtrcXmL1MnZAifk35k+BhD6rkdmbg3aelVgtCoMtdSgQmRn+Yqvdua0SPBQ1OfaP3z5ma92PC1eQtLXj6d8d6cmOIu70PSh9cfprZwNfYbk2xRUVLWif0QDltFC0dWKuoIUxJCuGgspHzi6EPXLJLWXLxmObrM+4USi81zq44nX4suH/uHYX3gPsi4FtCwLVj0Guew5rsZxJnYNt/osrsfbvokpjvSyDpdjbAffK7Et9jRqH3ViZFwHPctAPdiF1l/2TO2qsCX/Bp8vikXFk3Gw3TdRMHnjlgAYbvW5J+c6mt/IodLqoVcrIX/9EGfXuEP+3eB1nhh7Qp0t234IfzDriU/1cNnh0RjwMGihOKM4oxigGKAYoBigGKAY8EIMUPLvhUGngwc6eKAYoBigGKAYoBigGKAY8E4MUPJPyT8d9VMMUAxQDFAMUAxQDFAMUAx4CQYo+feSQNPRvXeO7mncadwpBigGKAYoBigGKAa4GKDkn5J/OtKnGKAYoBigGKAYoBigGKAY8BIMUPLvJYHmjvjoezoDQDFAMUAxQDFAMUAxQDHgnRig5J+SfzrSpxigGKAYoBigGKAYoBhwjgH/GBwprcL5zSLjc6B4Is6+YSg4+QSvTmdYHihGY+E8FjP0DyX/M3QgHTXzlPw0DrOa6BSnFKcUAxQDFAMUAzPCgM0TfmfUFrfPt3eff+739D3v/MBM/jf+eBC1bzUYqEjhPLwrAKKFqbjVa3gir+2DwP6BvqcK2QsNyRSIqNCjuFHbDrlCA0atQH/LfVyUSiyPXXczeDPThzDBfUORmXsXbR9U0GnGMdhSg/IwOw/wcqU7X+24uo4Qv+fL9vnajhBjJhidCOuGfzwuv7atQVo8TV1rKYgkMi7tFpo+hofR0BrliGBI1lxAl06OO5u4D5QMwYFLw2Bk57DLn7AfcImLz9AOX3EXom2udPJm2135hvT72fLhfCH/s+Uf0vgIQG6B5D9bUXz8AbqVLPQsi0Fb8u+7FtvW7sQeUaLlL+4cXo4x6L+chRhfw6OYo3H20QDeXTuHsoQM5G0rRc3LcegVD1G6NNDSQRMYzIs+BNcRGR7xnPEYCmYILSd+Qn7cT6h8MAR25DFOLLc8Lc5Rx2P5nK92PkMHQ+QnZ3rxZft8bceZ7+h3xHVjYSKqu7RoL0vDrpXxSJn8i0XCYk6eksi4wjtpHSO5FomMK31ojXLad8xf8s9XPfTEGuPNtvMVr1n04bwg/7PoH5c1na8Yz7ydBbuPyTDQdBfn4/Nw4y0znfzbGuMrRuE1OZiO37H3XxYFxAuDrWb5w8OrMMgM4Y6UOytjkbeQZ+5nQeBLH/vtc67ln4DKNgaKm3nYbBjA+ARAvCQfDaMMOksTrGxx2hZf7dj62RP+58v2+dqOJ8TwM+tIVDcW7UHtsAaPk1Y7JoMkMgS2CkofoeUFgf+c1kqefz9vyT9fcefZ33MSW2+2na948enDr2JxrKIJH4YNOzrG0Nv4NwZZBrL8TRaO5B+BvKP30f5hHDqNCoMttbgUHWH5ftKuECRIT+Leg3cYUmrB6rRQ9b1HY76Ra03b9hMI6YYLaFOq0FaahCgjRxP5iZB14CZeyAYxodZgvPsV6vOTpyahjf4T/zsRp8pr8fLVBwyNTIBhWWiVcrTkxUzpxKd/+IrZZ2hngej/b+/K35q61rV/AIOt557j7bn1qdf66BFERZEkjSIiICAqIDIIokwWqSAIrROgYvVSnKViKU4VyqBS0wJWQAYJUyBk2Dv+O+99Ahl2QpK9AhvIsH7g2Zvky9rf8H7fetfaa+3tGzC7ccM/Hre6+cl/2K5aDGpH8TQ+1MGGjwDsS3yKKVUHKjZwZudIDFwUfTik3wiQtaXo0GjQkiLCwcwmjMrbURkkRnmjBszzYkQbwcajs1igdpaksPLY4qwOQtnuqe04608qb6durC5Ai2ocz5L3Inp1kO26QyLjNP6XVx9XywtXw6enkn+h4u5q8SLRx5ttJ/EPiYxgPvQV4XTtMNjJTjzOPonc6DxcutSOUQvyvwMnKnqhnf4bjXknkRORg6rb76HW9OJB2A7DZE0g9h/+BXJGjaHGm7h8JAs54ak4lVSCs6E7Zuu5BfkPRNTeG+icmICsJAkRJi62FellXVCPvUXd8QxkhCahoOAphtSTaEvfbRpsSAIvoVurRlf1WZyJTsFx6RGcjM5FdsCW2UleL+ZsXPyY1vyLSMi/3y6cfzYNdcsPOOxgPaV0YyFeDqrRczEJe5zucA1EXUB9uAYbzyXbq9GnHUd9xDaklveAZQdx/5tg5NVMgJFdQbID+4xt6I9CtcNt013OhbLdU9txlzi6ip726oZkYwl+//sjxhRq6D4xmOxuxp3DEdjFqS0kMs7audz6uFpeOOu/xZb3VPIvVNwX2/+L0b432y6UP4XyoeTrc+hQayDLCzcRa5HVsh/x2iK8UjHoKowyy/hHofo1A/WTIuzXE/fPkvCgT4fpp2dxwB6vMpL/n08jJfUXDEwO4rfjMQjj1Hjxmu/QqpxEU7KYMwEUgqKHU2CaziHWb5Y7zpL/CTRE2V51IpR/hIrXcrXjFPmXbLuC99oJPD8YwnG+5ax62LZSNA+oMHg7H/Ezm4Etvyc2lID8k+hj73pmAARB5B+C2HU78Y1P0ALI/8LasaenK3/uaj50NX1cOXauphtZ3QhE2LpDKL3WCaV2AHXhnA2/pk6CRIa/JrmCPhTPjuPk+eSf9inz7Zddrb4tpT5C1Q1p5EMomH7cCeWs3rAi/9J9DzHBDOCOaDNnSeZmHLvYD3b4PrI/2wTJxvPo1GrRlu7g8aAG8q+bnMQ0q8SbnAjzYMJQ26URDzCu00Gn1YLRcP7YT9D13ES6YWBBTv69L7+4OHSC/Aci7Xwf2OGHyPuHraIcgPDQS+gYnUZv9QnE2hvhmTppW21wPuMl/3z6cNqycU3zrTHOQMY31LDs5+w8lv0srB1uUNzl3NV86Gr6uEscl1fPedSNlYm418ti/MdU+8+EJpGxURf0Ty5zuo6RXItExkofimfHNVyytQo92jHUR3Bn+PQTOONg/qhE4kL7IKt4LFWeCBX3pdJXyOt4s+1C+VEoHxqJ/V0xh9g7Rf7vzZL/Dd/jT60WrakOnqRoIP9M6wPceTkGduIP1IRZLi036lN/KBoJgZEWf4c3iLHbkK985F8o/wgVr+Vqh5z86zdJ/MVAUZtpcjJXaclXeXg+qMaH65nYb7j9wv3efB6IKGkJaspKcXwNZ0RpXWj5yD+PPrPXc3At/7jZDb/3ckxrysRf5OLFmK0Nv0K147gzM/vITeSWxYdCxUKodtwkVtb55SL/k9cNjp8/T8L9Ph7yb1fGQdz1y/iI69gS6LMs+cWxy0UwYq8uitcU4ZWagSw3zDxL6BeOylYG2sYzFpsA7bXhkp87FXf3iReRr73ZdqHyTSAfir8qQruKwfuSWPMkixX5J1v2cwQP+nWY+vWM/Ulh47Kfujzs/nwvin/qhXqqC3cjzEt8jPr0lMfb5KBGfPGRf5FA/jFez12PK0SrxDgYtB9JwXn4pY/F6O3TSN4SjcNrt1ks7ZGsm90g25ZuDobZ6CBkXBoAM9SA8p3GR/HNHhPX7zAXZj24Vybgbq/+md0shioSLd8poP9eEH0MBdHhtQIRm94EBSNHW0k+ciPzcbNRPvOoz/KvrQYlQrUjVHK7TDvL4EOhYiFUOy4TC3ckASR1YwvSM67hSkoWcsKScTKmEDcf9UHDcJf9kMiQ1ARX02cZ8sud8Oy3C+UNk9DJ21CTkIy00GQUl7djgp1ES6r100bcKT+ciLs7xYtIV2+2XSiMCuXD7ci63AtGPYiWc4U4FX4U2QduolPLfdrPdtOG3yf5OciLysPVOz1zNvzGpTzHGKvf8FuDy4mZyA5PRV5cAS7GGfYKcMm/Hif+u3C6pg8aRQeqdxqf8haMzPPvoGFGIbv2PYqjU3FyXxZKskuRv97M2XjJv/4RyqTcjwizQsVtadtZIQm5jg+s9Qu8dBi7bnlLXbrnLkYZ/aZYzi0go2P89qCihbH5IjDGegbGV4xT1e+hVPTgUezcgYQg+hj14rmWyHcn0nPq0TmgBKNRYuRVPSpFNm5NCdWOUS9POi61D4WKhVDteFIsl9oWkrrhK0JOyQt0vh+HSqsDMz2OgZYG3IgJN2/4JZEx2uYo7q6mj17npc4vo5/c5Cj5MgmVtR0YGlODZTRQ9HagMT8JkQ7vPi9tJ2ueJHPiuqRxd5M4OeUDb7ZdqHgK5UN/KU4WPIasVwENy4JVTUAua8OtaM6SHP2jPouf4N3g9CyPetOIG5HWg+8tOBB1EQ2/9WBsSgsdy0A13IuOC8dmV15Yk3+9Hz6LQmXTFNi+B8j/wvC+KD8Rjp24i/Y/5VBqdNCpJiF/+xyXg50h/07UVaHi4YLtmJf9uKByThUMqj9nw40TnQz1G/UbxQDFAMUAxQDFAMUAxYDXYICSfwp2rwE7HUzSQSHFAMUAxQDFAMUAxYC3Y4CSf0r+KfmnGKAYoBigGKAYoBigGKAY8BIMUPLvJYH29lEutZ/O9FAMUAxQDFAMUAxQDFAMbAIl/5T805E+xQDFAMUAxQDFAMUAxQDFgJdggJJ/Lwk0HenS2Q6KAYoBigGKAYoBigGKAYoBSv4p+acjfYoBigGKAYoBigGKAYoBigEvwQAl/14SaDrSpyN9igGKAYoBigGKAYoBigGKARP53/2fU2h4p8bHyqS5b939RzRKq1rRP6oBo5rEUFs9KqUizpt7A7A35AzuN3RBrlCDUSkw9OpXVIdLODLOOduhPjOEPQBh/8lARdUzyLrlUCpacGGt4UUQ+u9X7UXhDy/QMzQNRqvGRHcr6lJjsMfXGT0EtMs3BOk5j9DZr4RWPYXhV/WoCLXxQjF3G4wIZZentuNu8VxSfQnzy38/brzVvxWc+zJCDZqTt5tnqUhkeG2j+vCSAqHylDcW/HVaEnwNvVo5ft4TZMaBTxCyr4+CkVXhiD9/G7z2CqDnQq7hsB8kiQWJzDLbOMc/7qgz9SEnB+eTd5txILoKT5r7MKFiwKjGMdhSjyqpCGKTb0lk5nNt7/zNCsn/xKH43FP0TbLQsSyGrcm/bygKauVgR9pRczgRqeJMVD0YgHayHZc2Gt726x+By799xN+3q1Aem4bcA6WofzMFneI5StdwCLkpiPadzavPTBtbkZjWgIHRD2i7ehHn4lJwbMc+RH1ubHcrsir7wRh0PhqchOKLr6FghlG/L5gcpILZFYjYtJdQMCN4VfYt8qK/Rc3TEbBjL1G2zvxmujlFkMBfy/sboezy1HaMeKRHmzglza+Vh3GnV4Ou8hQc2bIfSTN/UYhdzckdEhm+fKL68NRGofJUmHzwZPLP3w+SxIJERphY2Mxvvnyz+b076kx9uPD4ByLm0HXUFZ9BQUQKcg+Vof71FHQjj1Gw2uhfEhmjLD3yxWTF0bMyfGx9hKv7c3H/HTOX/K8+heZpBp0Fe82z+P+ViQY5gw8/xJs+E6/cbDrXX1QqrcUwM4Kfw7mzMnwBCQSvPj6bsFt0Az3DrajcstV2Z+V/ELfeMRi6nGC+i7EyAfd6teg9F2uhJ5+DBLHLPxY1nQwUD3Kxz3DnQfzvPLwYZ9BT6pw+fPou6fdC2eWp7djs3PhywLu+J8qvz46hYVSNlwnbbOe73s8kMgTxoPo4wJ9QeUoQB5I65rnkn6AfJIkFiYxAsSCJF5GMO+rsyT70EyEj+wFey4YxrVJjqu8PPMlLRKRxBYVvKHLLmtDZPQzFlAasdhqjshf4KSbMzL18NkH8z1iUV7fjg3waDMtArRjF0Ksa5P3Lfr2RxjzGNPMON7YaJplt+JlEhgh3Ntr29N+tEPkGzN5W8Y/Hre655F+8tgQdGi3a0kLNt198v8GFF1owv57GXptOC8C+xKeYUnWgYgNnds6mrFXwefQR+Yag6OEUmP5O/NUtx+TkFMa6WvFzehzCTYCUorxRBUZ2Exn/mr3zIA28ANn0CBqid9gnELz6zc8u8dpSdGg0aEkR4WBmE0bl7agMEqO8UQPmeTGijXrzXt/KV8ssL5RdntqOpxcP4e2zk1+rC9CiGsez5L2IXh1krkNc/JPIcOWJzqk+3BgLlafcNhdy7rnxuv4oAAAIvklEQVTkfxP4+2X+PsXV4kUSa3fUmcSupZQRzodbkV7WBfXYW9Qdz0BGaBIKCp5iSD2JtvTds5OofrtR8TsD9nUtiqJTcDK6ADcb5dCp3qDSuDLEZzMyLg+AlbeiJuEo0kPicSw8C6XHjuGgzaV5mxG2PhlXGuRQy6pxbJUt3kMiY+t39DMjFk1r/kV2yL9IPxL/i4GqvRon126F2GczwtYdQe1rFsyzYkTZIK7SjYV4OahGz8Uk7CHqZG0ExJ4+n6WhfoTFx8cVKA4/hKPBCSgsbcUEO4onB8wDFOmmAjx5p4ZmoAPPqushGxqDrDgRe23oa3QG33G+dkm2V6NPO476iG1ILe8Byw7i/jfByKuZACO7gmSbCWDDJ/P15SL9Tii7PLUdPjzR7y0xbi+/JBtL8PvfHzGmUEP3icFkdzPuHI7ALg6uSWSc9TfVxzI+QuWps3GwJ+/R5N+IbTv9IEksSGTs+Xa5PndHnZfLV/auK5QPxWu+Q6tyEk3JYs6Ei2HytekcYv02QWQg/9q6POw2YFayTj8w1eJVpvF323D6jhJs921kf2l/Fl9vj/i/C9A8zeLTp0/Qjbbj6s65y7RJZOz5hn5urun85N9nE8J2lOJFtxK6TyxYhoVOqcC0Vofp21kWHbDesWHbStE8oMLg7XzErzRfyGmn2yl64i8K0aoHVoYRWJsg8o9E9WsGqro8hM8AMAARYdWQDfXhZXEJLpc9gmxAA1VXHYrWO3knwgDohdhlTsYgiPxDELtuJ77xCfIg8r8wu4Tyj6u14zTmjR2+Fx7J8isQYesOofRaJ5TaAdSFczb8mnxGIsNfl6g+c30kVH4JlReU/OsnlOzXXleLF0nc3VFnEruWUkYoH0ojHmBcp4NOqwWj4fyxn6DruYl0/aSlDfI/swRzjEH3d1GmJdbSgNN40q2CTjmIt7d/xIWoSITrBw+mum049wtB7JZ4HI8+g9rGQWgmOnB1+xZLORIZ63bp/5Y+9OG+4dcO2TYHZzPCvwrHwfUShAf+gD81anSc2GUKrsgnAOGhl9AxOo3e6hOIXehstj19/nkKv6tZdBdGcq4djLOPNWCay2ZHo6uOoq5fja7TZhnx6iN40M1Cces4wpwCwsLtMt+GCzGPoH1DDct+znrAsp+F2SWUf1ytHXPu2ChyTmHQk38/j/xamYh7vSzGf0yF1J4fSWRs/pbqYw+3QuWXvfad/VyytQo92rFZAmyKpX5SZRzMH5VIXGgfZGpzGfPPTj9IEgsSGWd9vtjy7qjzYvvE2faF8qF030NMMAOoPxSNhMBIi7/DG8SzM/02yX8aHo8w+LvITP5nbFgpxtHYUty++wdGVCwmmq8i698OHgizKhkP+1mMVqfYr/MkMq6Qxy6oA9HMvwX4Pt+H7x+PQvfxMQo4gZN8lYfng2p8uJ6J/bZGdCbjAxElLUFNWSmOr3EwC2+n6In8D6Cmi4W68YyZNK+MR62e2P+UMQNIyf+W4o1GiWdx3A3BW1F4XwnmZSliLPRzrI8gdvnHzW74vZeDCMOyI/EXuXgx5u4bfp2xy4GfnfKPq7WzjMTAlFPuqwN5fnFs/DwJ9/t4yL9dGQf48dkEqo8D/ziVp5x4LRJOxWuK8ErNQJYbZp4I8gtHZSsDbeMZ86bERbq+Rb+4WNew2w8S1F4XixeRv9xR58WK/XzbFciH4q+K0K5i0FMeb1rSMyeGzpB/jj27Ar7HG+sHyXC+n7mOsYbfSLNP/klkrNul/8/cBVghWiXGwaD9SArOwy99LEZvn0bylmgcXrvNNEu9e20U0qQZOJv3f2juVEI38Ra1e8zr60U+Qci4NABmqAHlO42P4ps9Jq7fYS7MeqevTMDdXv0zu1kMVSRa7AifCTivPptxKPc1VKwcrYWZSAtOQPFlGabV73FLZHgaiH8sbrzVQP3Xz7gQEYfEzXHIPl6HHpUa74pinNBHKLsCEZveBAUjR1tJPnIj82c2xegf9Vn+tYMBkMuD1Am7HMbdjdtx+RgtPgmb0yEQ+4Qkv7YgPeMarqRkIScsGSdjCnHzUR80DHfZD4mMwQ8OcUj1cVyfnchTYgwsAJ9+u1DeMAmdvA01CclIC01GcXk7JthJtKRy70ov4BpLYYeta/D2gySxIJFxNd+4o86e6sNgZJ5/Bw0zCtm171EcnYqT+7JQkl2KfOPyaSLyvw1ZBfdReyIH2ZJ4pOxMwrc5DRjQKtGaali+7SdBXn4VLiZkIHu3vs6fxo26Pmi0A3hoXN5JImMrl+hnc5b86PvsFZKQ6/jAcl+eoz/XYey68ZZ6INIv9EEzPY6Pb9vw5HwRjq+1enyn3x5UtDBWL+GZbZOxnoHxFeNU9XsoFT14FMtZt28IEL8++nVmYpwoaEBXvxKMVoOJribcittjMZCQbjiBmvoujEwx0LEaKPv/QlNZFg5Y70NwpI+Adol8dyI9px6dA0owGiVGXtWjUuQJL/kitMuRn/WxJ/WPq7VDC4vNwkI0ICDJL18RckpeoPP9OFRaHZjpcQy0NOBGTLh5vxGJjDFOjvBD9YHIkX+cyVOjvxf5KPkyCZW1HRgaU4NlNFD0dqAxPwmRFnd3XY2c8etD1A+S1EwSmUWOEVEt4Orgjjpz9XeFc6F86CfCsRN30f6nHEqNDjrVJORvn+NysGHSkoT8+4pwsugJOnvHodbvGWVUUPS+xYuSDMQa+Zj/XhRXNaF7RkYHZmoUH5of48foPeZZfxIZV/C9m+hgXvbjJgo7XUioXfMnZ9R31HcUAxQDFAMUAxQDFAMUAx6FAUr+KaA9CtB0cMg/q0h9RH1EMUAxQDFAMUAx4L0YoOSfkn9K/ikGKAYoBigGKAYoBigGKAa8BAOU/HtJoOkI33tH+DT2NPYUAxQDFAMUAxQDFANGDFDyT8k/HelTDFAMUAxQDFAMUAxQDFAMeAkGKPn3kkAbR3v0SEf+FAMUAxQDFAMUAxQDFAPei4H/B4VtOZwWxlYDAAAAAElFTkSuQmCC;" parent="1" vertex="1">
          <mxGeometry x="783" y="280" width="735.48" height="140" as="geometry" />
        </mxCell>
        <mxCell id="lJt3ZLxrcyOkywHUj_6z-62" value="&lt;font face=&quot;comic sans ms&quot;&gt;&lt;b&gt;10.244.1.0&lt;/b&gt;&lt;/font&gt;" style="text;html=1;resizable=0;autosize=1;align=center;verticalAlign=middle;points=[];fillColor=none;strokeColor=none;rounded=0;" parent="1" vertex="1">
          <mxGeometry x="760" y="797.5" width="80" height="20" as="geometry" />
        </mxCell>
        <mxCell id="lJt3ZLxrcyOkywHUj_6z-81" style="rounded=0;orthogonalLoop=1;jettySize=auto;html=1;exitX=0;exitY=0.5;exitDx=0;exitDy=0;entryX=1;entryY=0.5;entryDx=0;entryDy=0;startArrow=oval;startFill=1;endArrow=block;endFill=1;" parent="1" source="lJt3ZLxrcyOkywHUj_6z-63" target="lJt3ZLxrcyOkywHUj_6z-65" edge="1">
          <mxGeometry relative="1" as="geometry" />
        </mxCell>
        <mxCell id="skNrng6cfQYikDcmEY0n-3" style="edgeStyle=orthogonalEdgeStyle;rounded=0;orthogonalLoop=1;jettySize=auto;html=1;exitX=1;exitY=0.5;exitDx=0;exitDy=0;entryX=0;entryY=0.5;entryDx=0;entryDy=0;startArrow=oval;startFill=1;endArrow=oval;endFill=1;" edge="1" parent="1" source="lJt3ZLxrcyOkywHUj_6z-63" target="lJt3ZLxrcyOkywHUj_6z-101">
          <mxGeometry relative="1" as="geometry" />
        </mxCell>
        <mxCell id="lJt3ZLxrcyOkywHUj_6z-63" value="&lt;b&gt;&lt;font face=&quot;Comic Sans MS&quot;&gt;ens33&lt;/font&gt;&lt;/b&gt;" style="rounded=0;whiteSpace=wrap;html=1;fillColor=#dae8fc;strokeColor=#6c8ebf;" parent="1" vertex="1">
          <mxGeometry x="720" y="661.25" width="40" height="62.5" as="geometry" />
        </mxCell>
        <mxCell id="lJt3ZLxrcyOkywHUj_6z-87" style="rounded=0;orthogonalLoop=1;jettySize=auto;html=1;entryX=0.467;entryY=1.038;entryDx=0;entryDy=0;entryPerimeter=0;startArrow=oval;startFill=1;endArrow=block;endFill=1;" parent="1" source="lJt3ZLxrcyOkywHUj_6z-65" target="lJt3ZLxrcyOkywHUj_6z-86" edge="1">
          <mxGeometry relative="1" as="geometry" />
        </mxCell>
        <mxCell id="lJt3ZLxrcyOkywHUj_6z-65" value="" style="rounded=0;whiteSpace=wrap;html=1;strokeColor=#000000;strokeWidth=1;" parent="1" vertex="1">
          <mxGeometry x="-10" y="797.5" width="430" height="230" as="geometry" />
        </mxCell>
        <mxCell id="lJt3ZLxrcyOkywHUj_6z-76" value="&lt;font face=&quot;Comic Sans MS&quot; style=&quot;font-size: 14px&quot;&gt;&lt;b&gt;kube-api-server&lt;/b&gt;&lt;/font&gt;" style="rounded=1;whiteSpace=wrap;html=1;fillColor=#d5e8d4;strokeColor=#82b366;shadow=1;sketch=1;" parent="1" vertex="1">
          <mxGeometry x="264" y="885" width="150" height="52.5" as="geometry" />
        </mxCell>
        <mxCell id="lJt3ZLxrcyOkywHUj_6z-80" style="edgeStyle=orthogonalEdgeStyle;curved=1;rounded=0;orthogonalLoop=1;jettySize=auto;html=1;exitX=1;exitY=0.5;exitDx=0;exitDy=0;startArrow=oval;startFill=1;endArrow=block;endFill=1;entryX=0.553;entryY=1.067;entryDx=0;entryDy=0;entryPerimeter=0;" parent="1" source="lJt3ZLxrcyOkywHUj_6z-77" target="lJt3ZLxrcyOkywHUj_6z-76" edge="1">
          <mxGeometry relative="1" as="geometry">
            <Array as="points" />
          </mxGeometry>
        </mxCell>
        <mxCell id="lJt3ZLxrcyOkywHUj_6z-77" value="&lt;font face=&quot;Comic Sans MS&quot; style=&quot;font-size: 14px&quot;&gt;&lt;b&gt;kube-controller-manager&lt;/b&gt;&lt;/font&gt;" style="rounded=1;whiteSpace=wrap;html=1;fillColor=#f8cecc;strokeColor=#b85450;shadow=1;sketch=1;" parent="1" vertex="1">
          <mxGeometry x="30" y="950" width="180" height="50" as="geometry" />
        </mxCell>
        <mxCell id="lJt3ZLxrcyOkywHUj_6z-79" style="edgeStyle=orthogonalEdgeStyle;curved=1;rounded=0;orthogonalLoop=1;jettySize=auto;html=1;exitX=1;exitY=0.5;exitDx=0;exitDy=0;startArrow=oval;startFill=1;endArrow=block;endFill=1;" parent="1" source="lJt3ZLxrcyOkywHUj_6z-78" target="lJt3ZLxrcyOkywHUj_6z-76" edge="1">
          <mxGeometry relative="1" as="geometry" />
        </mxCell>
        <mxCell id="lJt3ZLxrcyOkywHUj_6z-78" value="&lt;font face=&quot;Comic Sans MS&quot; style=&quot;font-size: 14px&quot;&gt;&lt;b&gt;kube-scheduler&lt;/b&gt;&lt;/font&gt;" style="rounded=1;whiteSpace=wrap;html=1;fillColor=#fff2cc;strokeColor=#d6b656;shadow=1;sketch=1;" parent="1" vertex="1">
          <mxGeometry x="20" y="817.5" width="180" height="50" as="geometry" />
        </mxCell>
        <mxCell id="lJt3ZLxrcyOkywHUj_6z-83" value="" style="html=1;dashed=0;whitespace=wrap;fillColor=#2875E2;strokeColor=#ffffff;points=[[0.005,0.63,0],[0.1,0.2,0],[0.9,0.2,0],[0.5,0,0],[0.995,0.63,0],[0.72,0.99,0],[0.5,1,0],[0.28,0.99,0]];shape=mxgraph.kubernetes.icon;prIcon=etcd;rounded=1;shadow=0;sketch=0;" parent="1" vertex="1">
          <mxGeometry x="414" y="454" width="50" height="48" as="geometry" />
        </mxCell>
        <mxCell id="lJt3ZLxrcyOkywHUj_6z-84" value="" style="html=1;dashed=0;whitespace=wrap;fillColor=#2875E2;strokeColor=#ffffff;points=[[0.005,0.63,0],[0.1,0.2,0],[0.9,0.2,0],[0.5,0,0],[0.995,0.63,0],[0.72,0.99,0],[0.5,1,0],[0.28,0.99,0]];shape=mxgraph.kubernetes.icon;prIcon=etcd;rounded=1;shadow=0;sketch=0;" parent="1" vertex="1">
          <mxGeometry x="310" y="454" width="50" height="48" as="geometry" />
        </mxCell>
        <mxCell id="lJt3ZLxrcyOkywHUj_6z-85" value="" style="html=1;dashed=0;whitespace=wrap;fillColor=#2875E2;strokeColor=#ffffff;points=[[0.005,0.63,0],[0.1,0.2,0],[0.9,0.2,0],[0.5,0,0],[0.995,0.63,0],[0.72,0.99,0],[0.5,1,0],[0.28,0.99,0]];shape=mxgraph.kubernetes.icon;prIcon=etcd;rounded=1;shadow=0;sketch=0;" parent="1" vertex="1">
          <mxGeometry x="530" y="454" width="50" height="48" as="geometry" />
        </mxCell>
        <mxCell id="lJt3ZLxrcyOkywHUj_6z-117" style="edgeStyle=none;rounded=0;orthogonalLoop=1;jettySize=auto;html=1;exitX=1;exitY=0.5;exitDx=0;exitDy=0;startArrow=oval;startFill=1;endArrow=oval;endFill=1;" parent="1" source="lJt3ZLxrcyOkywHUj_6z-99" target="lJt3ZLxrcyOkywHUj_6z-104" edge="1">
          <mxGeometry relative="1" as="geometry" />
        </mxCell>
        <mxCell id="lJt3ZLxrcyOkywHUj_6z-118" style="rounded=0;orthogonalLoop=1;jettySize=auto;html=1;exitX=0;exitY=0.5;exitDx=0;exitDy=0;startArrow=oval;startFill=1;endArrow=block;endFill=1;dashed=1;" parent="1" source="lJt3ZLxrcyOkywHUj_6z-99" target="lJt3ZLxrcyOkywHUj_6z-76" edge="1">
          <mxGeometry relative="1" as="geometry" />
        </mxCell>
        <mxCell id="lJt3ZLxrcyOkywHUj_6z-99" value="&lt;font face=&quot;Comic Sans MS&quot; style=&quot;font-size: 14px&quot;&gt;&lt;b&gt;kubelet&lt;/b&gt;&lt;/font&gt;" style="rounded=0;whiteSpace=wrap;html=1;fillColor=#e1d5e7;strokeColor=#9673a6;" parent="1" vertex="1">
          <mxGeometry x="720" y="550" width="110" height="50" as="geometry" />
        </mxCell>
        <mxCell id="lJt3ZLxrcyOkywHUj_6z-100" value="&lt;b style=&quot;font-family: &amp;#34;comic sans ms&amp;#34; ; font-size: 14px&quot;&gt;cni0&lt;/b&gt;" style="rounded=0;whiteSpace=wrap;html=1;fillColor=#dae8fc;strokeColor=#6c8ebf;" parent="1" vertex="1">
          <mxGeometry x="853" y="640" width="40" height="100" as="geometry" />
        </mxCell>
        <mxCell id="skNrng6cfQYikDcmEY0n-4" value="" style="edgeStyle=orthogonalEdgeStyle;rounded=0;orthogonalLoop=1;jettySize=auto;html=1;startArrow=oval;startFill=1;endArrow=oval;endFill=1;" edge="1" parent="1" source="lJt3ZLxrcyOkywHUj_6z-101" target="lJt3ZLxrcyOkywHUj_6z-100">
          <mxGeometry relative="1" as="geometry" />
        </mxCell>
        <mxCell id="lJt3ZLxrcyOkywHUj_6z-101" value="&lt;b style=&quot;font-family: &amp;#34;comic sans ms&amp;#34; ; font-size: 14px&quot;&gt;flannel0&lt;/b&gt;" style="rounded=0;whiteSpace=wrap;html=1;fillColor=#fff2cc;strokeColor=#d6b656;" parent="1" vertex="1">
          <mxGeometry x="783" y="640" width="50" height="100" as="geometry" />
        </mxCell>
        <mxCell id="lJt3ZLxrcyOkywHUj_6z-106" value="" style="rounded=0;whiteSpace=wrap;html=1;shadow=0;dashed=1;sketch=0;strokeColor=#000000;strokeWidth=2;" parent="1" vertex="1">
          <mxGeometry x="950" y="972.5" width="220" height="215" as="geometry" />
        </mxCell>
        <mxCell id="lJt3ZLxrcyOkywHUj_6z-107" value="&lt;b style=&quot;font-family: &amp;#34;comic sans ms&amp;#34;&quot;&gt;10.244.2.2&lt;/b&gt;" style="rounded=0;whiteSpace=wrap;html=1;fillColor=#d5e8d4;strokeColor=#82b366;" parent="1" vertex="1">
          <mxGeometry x="965" y="1027.5" width="180" height="100" as="geometry" />
        </mxCell>
        <mxCell id="lJt3ZLxrcyOkywHUj_6z-108" value="" style="edgeStyle=orthogonalEdgeStyle;curved=1;rounded=0;orthogonalLoop=1;jettySize=auto;html=1;startArrow=oval;startFill=1;endArrow=oval;endFill=1;" parent="1" source="lJt3ZLxrcyOkywHUj_6z-109" target="lJt3ZLxrcyOkywHUj_6z-114" edge="1">
          <mxGeometry relative="1" as="geometry" />
        </mxCell>
        <mxCell id="lJt3ZLxrcyOkywHUj_6z-109" value="&lt;b&gt;&lt;font face=&quot;Comic Sans MS&quot;&gt;etho&lt;/font&gt;&lt;/b&gt;" style="rounded=0;whiteSpace=wrap;html=1;fillColor=#dae8fc;strokeColor=#6c8ebf;" parent="1" vertex="1">
          <mxGeometry x="965" y="1047.5" width="30" height="60" as="geometry" />
        </mxCell>
        <mxCell id="lJt3ZLxrcyOkywHUj_6z-110" value="&lt;font face=&quot;comic sans ms&quot;&gt;&lt;b&gt;10.244.2.1&lt;/b&gt;&lt;/font&gt;" style="text;html=1;resizable=0;autosize=1;align=center;verticalAlign=middle;points=[];fillColor=none;strokeColor=none;rounded=0;" parent="1" vertex="1">
          <mxGeometry x="850" y="1185" width="80" height="20" as="geometry" />
        </mxCell>
        <mxCell id="lJt3ZLxrcyOkywHUj_6z-111" value="&lt;font face=&quot;comic sans ms&quot;&gt;&lt;b&gt;10.244.2.0&lt;/b&gt;&lt;/font&gt;" style="text;html=1;resizable=0;autosize=1;align=center;verticalAlign=middle;points=[];fillColor=none;strokeColor=none;rounded=0;" parent="1" vertex="1">
          <mxGeometry x="760" y="1185" width="80" height="20" as="geometry" />
        </mxCell>
        <mxCell id="lJt3ZLxrcyOkywHUj_6z-116" style="rounded=0;orthogonalLoop=1;jettySize=auto;html=1;exitX=0;exitY=0.5;exitDx=0;exitDy=0;entryX=1;entryY=0.5;entryDx=0;entryDy=0;startArrow=oval;startFill=1;endArrow=block;endFill=1;" parent="1" source="lJt3ZLxrcyOkywHUj_6z-112" target="lJt3ZLxrcyOkywHUj_6z-65" edge="1">
          <mxGeometry relative="1" as="geometry" />
        </mxCell>
        <mxCell id="skNrng6cfQYikDcmEY0n-5" value="" style="edgeStyle=orthogonalEdgeStyle;rounded=0;orthogonalLoop=1;jettySize=auto;html=1;startArrow=oval;startFill=1;endArrow=oval;endFill=1;" edge="1" parent="1" source="lJt3ZLxrcyOkywHUj_6z-112" target="lJt3ZLxrcyOkywHUj_6z-115">
          <mxGeometry relative="1" as="geometry" />
        </mxCell>
        <mxCell id="lJt3ZLxrcyOkywHUj_6z-112" value="&lt;b&gt;&lt;font face=&quot;Comic Sans MS&quot;&gt;ens33&lt;/font&gt;&lt;/b&gt;" style="rounded=0;whiteSpace=wrap;html=1;fillColor=#dae8fc;strokeColor=#6c8ebf;" parent="1" vertex="1">
          <mxGeometry x="720" y="1048.75" width="40" height="62.5" as="geometry" />
        </mxCell>
        <mxCell id="skNrng6cfQYikDcmEY0n-7" style="rounded=0;orthogonalLoop=1;jettySize=auto;html=1;exitX=1;exitY=0.5;exitDx=0;exitDy=0;entryX=0;entryY=0.198;entryDx=0;entryDy=0;entryPerimeter=0;startArrow=oval;startFill=1;endArrow=oval;endFill=1;" edge="1" parent="1" source="lJt3ZLxrcyOkywHUj_6z-113" target="lJt3ZLxrcyOkywHUj_6z-106">
          <mxGeometry relative="1" as="geometry" />
        </mxCell>
        <mxCell id="lJt3ZLxrcyOkywHUj_6z-113" value="&lt;font face=&quot;Comic Sans MS&quot; style=&quot;font-size: 14px&quot;&gt;&lt;b&gt;kubelet&lt;/b&gt;&lt;/font&gt;" style="rounded=0;whiteSpace=wrap;html=1;fillColor=#e1d5e7;strokeColor=#9673a6;" parent="1" vertex="1">
          <mxGeometry x="720" y="937.5" width="110" height="50" as="geometry" />
        </mxCell>
        <mxCell id="lJt3ZLxrcyOkywHUj_6z-114" value="&lt;b style=&quot;font-family: &amp;#34;comic sans ms&amp;#34; ; font-size: 14px&quot;&gt;cni0&lt;/b&gt;" style="rounded=0;whiteSpace=wrap;html=1;fillColor=#dae8fc;strokeColor=#6c8ebf;" parent="1" vertex="1">
          <mxGeometry x="853" y="1027.5" width="40" height="100" as="geometry" />
        </mxCell>
        <mxCell id="skNrng6cfQYikDcmEY0n-6" value="" style="edgeStyle=orthogonalEdgeStyle;rounded=0;orthogonalLoop=1;jettySize=auto;html=1;startArrow=oval;startFill=1;endArrow=oval;endFill=1;" edge="1" parent="1" source="lJt3ZLxrcyOkywHUj_6z-115" target="lJt3ZLxrcyOkywHUj_6z-114">
          <mxGeometry relative="1" as="geometry" />
        </mxCell>
        <mxCell id="lJt3ZLxrcyOkywHUj_6z-115" value="&lt;b style=&quot;font-family: &amp;#34;comic sans ms&amp;#34; ; font-size: 14px&quot;&gt;flannel0&lt;/b&gt;" style="rounded=0;whiteSpace=wrap;html=1;fillColor=#fff2cc;strokeColor=#d6b656;" parent="1" vertex="1">
          <mxGeometry x="783" y="1027.5" width="50" height="100" as="geometry" />
        </mxCell>
        <mxCell id="skNrng6cfQYikDcmEY0n-2" value="&lt;font face=&quot;Comic Sans MS&quot;&gt;&lt;b&gt;注册节点分配节点的PodCIDR&lt;/b&gt;&lt;/font&gt;" style="text;html=1;resizable=0;autosize=1;align=center;verticalAlign=middle;points=[];fillColor=none;strokeColor=none;rounded=0;" vertex="1" parent="1">
          <mxGeometry x="390" y="703.75" width="170" height="20" as="geometry" />
        </mxCell>
      </root>
    </mxGraphModel>
  </diagram>
  <diagram id="nXMAJhg8tc9tRf69Eb6r" name="第 2 页">
    <mxGraphModel dx="-708" dy="606" grid="1" gridSize="10" guides="1" tooltips="1" connect="1" arrows="1" fold="1" page="1" pageScale="1" pageWidth="827" pageHeight="1169" math="0" shadow="0">
      <root>
        <mxCell id="TT7zNZew213VxDMG-_LK-0" />
        <mxCell id="TT7zNZew213VxDMG-_LK-1" parent="TT7zNZew213VxDMG-_LK-0" />
        <mxCell id="06lVTwP-GqR2o24h3vop-0" value="" style="rounded=0;whiteSpace=wrap;html=1;strokeWidth=1;dashed=1;" parent="TT7zNZew213VxDMG-_LK-1" vertex="1">
          <mxGeometry x="2050" y="550" width="350" height="170" as="geometry" />
        </mxCell>
        <mxCell id="06lVTwP-GqR2o24h3vop-1" value="&lt;font style=&quot;font-size: 14px&quot; face=&quot;Lucida Console&quot;&gt;&lt;b&gt;网络协议栈&lt;/b&gt;&lt;/font&gt;" style="rounded=0;whiteSpace=wrap;html=1;dashed=1;strokeWidth=2;fillColor=#dae8fc;strokeColor=#6c8ebf;" parent="TT7zNZew213VxDMG-_LK-1" vertex="1">
          <mxGeometry x="1720" y="443" width="930" height="77" as="geometry" />
        </mxCell>
        <mxCell id="06lVTwP-GqR2o24h3vop-2" value="" style="edgeStyle=orthogonalEdgeStyle;rounded=0;orthogonalLoop=1;jettySize=auto;html=1;startArrow=oval;startFill=1;endArrow=oval;endFill=1;" parent="TT7zNZew213VxDMG-_LK-1" source="06lVTwP-GqR2o24h3vop-3" target="06lVTwP-GqR2o24h3vop-5" edge="1">
          <mxGeometry relative="1" as="geometry" />
        </mxCell>
        <mxCell id="06lVTwP-GqR2o24h3vop-3" value="&lt;font face=&quot;Comic Sans MS&quot;&gt;&lt;b&gt;veth48f215c7&lt;/b&gt;&lt;/font&gt;" style="rounded=0;whiteSpace=wrap;html=1;strokeWidth=1;fillColor=#d5e8d4;strokeColor=#82b366;" parent="TT7zNZew213VxDMG-_LK-1" vertex="1">
          <mxGeometry x="2070" y="612.5" width="120" height="40" as="geometry" />
        </mxCell>
        <mxCell id="06lVTwP-GqR2o24h3vop-4" style="edgeStyle=orthogonalEdgeStyle;rounded=0;orthogonalLoop=1;jettySize=auto;html=1;exitX=0.5;exitY=0;exitDx=0;exitDy=0;startArrow=oval;startFill=1;endArrow=oval;endFill=1;entryX=0.656;entryY=1.013;entryDx=0;entryDy=0;entryPerimeter=0;" parent="TT7zNZew213VxDMG-_LK-1" source="06lVTwP-GqR2o24h3vop-5" target="06lVTwP-GqR2o24h3vop-1" edge="1">
          <mxGeometry relative="1" as="geometry">
            <mxPoint x="2321" y="519" as="targetPoint" />
          </mxGeometry>
        </mxCell>
        <mxCell id="06lVTwP-GqR2o24h3vop-5" value="&lt;font face=&quot;Comic Sans MS&quot;&gt;&lt;b&gt;etho&lt;/b&gt;&lt;/font&gt;" style="rounded=0;whiteSpace=wrap;html=1;strokeWidth=1;fillColor=#d5e8d4;strokeColor=#82b366;" parent="TT7zNZew213VxDMG-_LK-1" vertex="1">
          <mxGeometry x="2270" y="612.5" width="120" height="40" as="geometry" />
        </mxCell>
        <mxCell id="06lVTwP-GqR2o24h3vop-6" value="" style="edgeStyle=orthogonalEdgeStyle;rounded=0;orthogonalLoop=1;jettySize=auto;html=1;startArrow=oval;startFill=1;endArrow=oval;endFill=1;" parent="TT7zNZew213VxDMG-_LK-1" source="06lVTwP-GqR2o24h3vop-8" target="06lVTwP-GqR2o24h3vop-3" edge="1">
          <mxGeometry relative="1" as="geometry" />
        </mxCell>
        <mxCell id="06lVTwP-GqR2o24h3vop-7" style="edgeStyle=orthogonalEdgeStyle;rounded=0;orthogonalLoop=1;jettySize=auto;html=1;exitX=0.5;exitY=0;exitDx=0;exitDy=0;entryX=0.269;entryY=1;entryDx=0;entryDy=0;entryPerimeter=0;startArrow=oval;startFill=1;endArrow=oval;endFill=1;" parent="TT7zNZew213VxDMG-_LK-1" source="06lVTwP-GqR2o24h3vop-8" target="06lVTwP-GqR2o24h3vop-1" edge="1">
          <mxGeometry relative="1" as="geometry" />
        </mxCell>
        <mxCell id="06lVTwP-GqR2o24h3vop-8" value="&lt;font face=&quot;Comic Sans MS&quot;&gt;&lt;b&gt;cni0&lt;/b&gt;&lt;/font&gt;" style="rounded=0;whiteSpace=wrap;html=1;strokeWidth=1;fillColor=#dae8fc;strokeColor=#6c8ebf;" parent="TT7zNZew213VxDMG-_LK-1" vertex="1">
          <mxGeometry x="1910" y="612.5" width="120" height="40" as="geometry" />
        </mxCell>
        <mxCell id="06lVTwP-GqR2o24h3vop-9" style="edgeStyle=orthogonalEdgeStyle;rounded=0;orthogonalLoop=1;jettySize=auto;html=1;exitX=0.5;exitY=0;exitDx=0;exitDy=0;entryX=0.075;entryY=1;entryDx=0;entryDy=0;entryPerimeter=0;startArrow=oval;startFill=1;endArrow=oval;endFill=1;" parent="TT7zNZew213VxDMG-_LK-1" source="06lVTwP-GqR2o24h3vop-10" target="06lVTwP-GqR2o24h3vop-1" edge="1">
          <mxGeometry relative="1" as="geometry" />
        </mxCell>
        <mxCell id="06lVTwP-GqR2o24h3vop-10" value="&lt;font face=&quot;Comic Sans MS&quot;&gt;&lt;b&gt;ens33&lt;/b&gt;&lt;/font&gt;" style="rounded=0;whiteSpace=wrap;html=1;strokeWidth=1;fillColor=#dae8fc;strokeColor=#6c8ebf;" parent="TT7zNZew213VxDMG-_LK-1" vertex="1">
          <mxGeometry x="1730" y="690" width="120" height="40" as="geometry" />
        </mxCell>
        <mxCell id="06lVTwP-GqR2o24h3vop-11" value="&lt;font face=&quot;Comic Sans MS&quot; style=&quot;font-size: 14px&quot;&gt;&lt;b&gt;veth pair&lt;/b&gt;&lt;/font&gt;" style="text;html=1;resizable=0;autosize=1;align=center;verticalAlign=middle;points=[];fillColor=none;strokeColor=none;rounded=0;dashed=1;" parent="TT7zNZew213VxDMG-_LK-1" vertex="1">
          <mxGeometry x="2060" y="570" width="80" height="20" as="geometry" />
        </mxCell>
        <mxCell id="06lVTwP-GqR2o24h3vop-12" value="" style="edgeStyle=orthogonalEdgeStyle;rounded=0;orthogonalLoop=1;jettySize=auto;html=1;startArrow=oval;startFill=1;endArrow=oval;endFill=1;" parent="TT7zNZew213VxDMG-_LK-1" source="06lVTwP-GqR2o24h3vop-13" edge="1">
          <mxGeometry relative="1" as="geometry">
            <mxPoint x="2520" y="510" as="targetPoint" />
          </mxGeometry>
        </mxCell>
        <mxCell id="06lVTwP-GqR2o24h3vop-13" value="&lt;font face=&quot;Comic Sans MS&quot;&gt;&lt;b&gt;flannel0&lt;/b&gt;&lt;/font&gt;" style="rounded=0;whiteSpace=wrap;html=1;strokeWidth=1;fillColor=#dae8fc;strokeColor=#6c8ebf;" parent="TT7zNZew213VxDMG-_LK-1" vertex="1">
          <mxGeometry x="2460" y="620" width="120" height="40" as="geometry" />
        </mxCell>
        <mxCell id="06lVTwP-GqR2o24h3vop-14" style="edgeStyle=orthogonalEdgeStyle;rounded=0;orthogonalLoop=1;jettySize=auto;html=1;exitX=1;exitY=0.5;exitDx=0;exitDy=0;entryX=1;entryY=0.5;entryDx=0;entryDy=0;startArrow=oval;startFill=1;endArrow=oval;endFill=1;" parent="TT7zNZew213VxDMG-_LK-1" source="06lVTwP-GqR2o24h3vop-15" target="06lVTwP-GqR2o24h3vop-13" edge="1">
          <mxGeometry relative="1" as="geometry" />
        </mxCell>
        <mxCell id="06lVTwP-GqR2o24h3vop-15" value="&lt;font style=&quot;font-size: 14px&quot; face=&quot;Lucida Console&quot;&gt;&lt;b&gt;flanneld&lt;/b&gt;&lt;/font&gt;" style="rounded=0;whiteSpace=wrap;html=1;strokeWidth=1;fillColor=#e1d5e7;" parent="TT7zNZew213VxDMG-_LK-1" vertex="1">
          <mxGeometry x="2460" y="270" width="110" height="81" as="geometry" />
        </mxCell>
        <mxCell id="h6k8iepKcx2qt_HTrtW9-0" value="" style="endArrow=none;dashed=1;html=1;strokeWidth=2;" edge="1" parent="TT7zNZew213VxDMG-_LK-1">
          <mxGeometry width="50" height="50" relative="1" as="geometry">
            <mxPoint x="1700" y="400" as="sourcePoint" />
            <mxPoint x="2680" y="400" as="targetPoint" />
          </mxGeometry>
        </mxCell>
        <mxCell id="h6k8iepKcx2qt_HTrtW9-1" value="&lt;font face=&quot;Comic Sans MS&quot; style=&quot;font-size: 18px&quot;&gt;&lt;b&gt;用户态&lt;/b&gt;&lt;/font&gt;" style="text;html=1;resizable=0;autosize=1;align=center;verticalAlign=middle;points=[];fillColor=none;strokeColor=none;rounded=0;" vertex="1" parent="TT7zNZew213VxDMG-_LK-1">
          <mxGeometry x="1695" y="360" width="70" height="20" as="geometry" />
        </mxCell>
        <mxCell id="h6k8iepKcx2qt_HTrtW9-2" value="&lt;font face=&quot;Comic Sans MS&quot; style=&quot;font-size: 18px&quot;&gt;&lt;b&gt;内核态&lt;/b&gt;&lt;/font&gt;" style="text;html=1;resizable=0;autosize=1;align=center;verticalAlign=middle;points=[];fillColor=none;strokeColor=none;rounded=0;" vertex="1" parent="TT7zNZew213VxDMG-_LK-1">
          <mxGeometry x="1695" y="420" width="70" height="20" as="geometry" />
        </mxCell>
      </root>
    </mxGraphModel>
  </diagram>
</mxfile>
